{
	"patcher" : 	{
		"fileversion" : 1,
		"appversion" : 		{
			"major" : 8,
			"minor" : 5,
			"revision" : 6,
			"architecture" : "x64",
			"modernui" : 1
		}
,
		"classnamespace" : "box",
		"rect" : [ 528.0, 192.0, 885.0, 753.0 ],
		"bglocked" : 0,
		"openinpresentation" : 0,
		"default_fontsize" : 12.0,
		"default_fontface" : 0,
		"default_fontname" : "Arial",
		"gridonopen" : 1,
		"gridsize" : [ 15.0, 15.0 ],
		"gridsnaponopen" : 1,
		"objectsnaponopen" : 1,
		"statusbarvisible" : 2,
		"toolbarvisible" : 1,
		"lefttoolbarpinned" : 0,
		"toptoolbarpinned" : 0,
		"righttoolbarpinned" : 0,
		"bottomtoolbarpinned" : 0,
		"toolbars_unpinned_last_save" : 0,
		"tallnewobj" : 0,
		"boxanimatetime" : 200,
		"enablehscroll" : 1,
		"enablevscroll" : 1,
		"devicewidth" : 0.0,
		"description" : "",
		"digest" : "",
		"tags" : "",
		"style" : "",
		"subpatcher_template" : "",
		"assistshowspatchername" : 0,
		"boxes" : [ 			{
				"box" : 				{
					"id" : "obj-54",
					"maxclass" : "message",
					"numinlets" : 2,
					"numoutlets" : 1,
					"outlettype" : [ "" ],
					"patching_rect" : [ 559.0, 186.0, 50.0, 22.0 ],
					"text" : "1462"
				}

			}
, 			{
				"box" : 				{
					"id" : "obj-48",
					"maxclass" : "comment",
					"numinlets" : 1,
					"numoutlets" : 0,
					"patching_rect" : [ 333.0, 9.0, 150.0, 20.0 ],
					"text" : "Destro"
				}

			}
, 			{
				"box" : 				{
					"id" : "obj-28",
					"maxclass" : "meter~",
					"numinlets" : 1,
					"numoutlets" : 1,
					"outlettype" : [ "float" ],
					"patching_rect" : [ 747.666687000000138, 1836.0, 80.0, 13.0 ]
				}

			}
, 			{
				"box" : 				{
					"id" : "obj-26",
					"maxclass" : "meter~",
					"numinlets" : 1,
					"numoutlets" : 1,
					"outlettype" : [ "float" ],
					"patching_rect" : [ 426.0, 1836.0, 80.0, 13.0 ]
				}

			}
, 			{
				"box" : 				{
					"id" : "obj-36",
					"maxclass" : "meter~",
					"numinlets" : 1,
					"numoutlets" : 1,
					"outlettype" : [ "float" ],
					"patching_rect" : [ 479.5, 2283.0, 80.0, 13.0 ]
				}

			}
, 			{
				"box" : 				{
					"id" : "obj-30",
					"maxclass" : "newobj",
					"numinlets" : 3,
					"numoutlets" : 1,
					"outlettype" : [ "signal" ],
					"patching_rect" : [ 639.0, 1876.0, 58.0, 22.0 ],
					"text" : "clip~ -1 1"
				}

			}
, 			{
				"box" : 				{
					"id" : "obj-3",
					"maxclass" : "gain~",
					"multichannelvariant" : 0,
					"numinlets" : 1,
					"numoutlets" : 2,
					"outlettype" : [ "signal", "" ],
					"parameter_enable" : 0,
					"patching_rect" : [ 747.666687000000138, 1675.0, 22.0, 140.0 ]
				}

			}
, 			{
				"box" : 				{
					"id" : "obj-2",
					"maxclass" : "gain~",
					"multichannelvariant" : 0,
					"numinlets" : 1,
					"numoutlets" : 2,
					"outlettype" : [ "signal", "" ],
					"parameter_enable" : 0,
					"patching_rect" : [ 424.0, 1675.0, 22.0, 140.0 ]
				}

			}
, 			{
				"box" : 				{
					"id" : "obj-158",
					"maxclass" : "number",
					"numinlets" : 1,
					"numoutlets" : 2,
					"outlettype" : [ "", "bang" ],
					"parameter_enable" : 0,
					"patching_rect" : [ 544.166687000000138, 1960.0, 50.0, 22.0 ]
				}

			}
, 			{
				"box" : 				{
					"id" : "obj-156",
					"maxclass" : "number",
					"numinlets" : 1,
					"numoutlets" : 2,
					"outlettype" : [ "", "bang" ],
					"parameter_enable" : 0,
					"patching_rect" : [ 489.0, 1960.0, 50.0, 22.0 ]
				}

			}
, 			{
				"box" : 				{
					"id" : "obj-150",
					"maxclass" : "number",
					"numinlets" : 1,
					"numoutlets" : 2,
					"outlettype" : [ "", "bang" ],
					"parameter_enable" : 0,
					"patching_rect" : [ 437.0, 1960.0, 50.0, 22.0 ]
				}

			}
, 			{
				"box" : 				{
					"id" : "obj-145",
					"maxclass" : "number",
					"numinlets" : 1,
					"numoutlets" : 2,
					"outlettype" : [ "", "bang" ],
					"parameter_enable" : 0,
					"patching_rect" : [ 382.0, 1960.0, 50.0, 22.0 ]
				}

			}
, 			{
				"box" : 				{
					"id" : "obj-141",
					"maxclass" : "newobj",
					"numinlets" : 5,
					"numoutlets" : 2,
					"outlettype" : [ "signal", "signal" ],
					"patching_rect" : [ 436.0, 2047.0, 167.0, 22.0 ],
					"text" : "yafr2"
				}

			}
, 			{
				"box" : 				{
					"fontface" : 0,
					"fontname" : "Arial",
					"fontsize" : 12.0,
					"id" : "obj-134",
					"maxclass" : "number~",
					"mode" : 2,
					"numinlets" : 2,
					"numoutlets" : 2,
					"outlettype" : [ "signal", "float" ],
					"patching_rect" : [ 924.0, 2192.0, 56.0, 22.0 ],
					"sig" : 0.0
				}

			}
, 			{
				"box" : 				{
					"fontface" : 0,
					"fontname" : "Arial",
					"fontsize" : 12.0,
					"id" : "obj-133",
					"maxclass" : "number~",
					"mode" : 2,
					"numinlets" : 2,
					"numoutlets" : 2,
					"outlettype" : [ "signal", "float" ],
					"patching_rect" : [ 691.0, 2140.0, 56.0, 22.0 ],
					"sig" : 0.0
				}

			}
, 			{
				"box" : 				{
					"id" : "obj-124",
					"maxclass" : "newobj",
					"numinlets" : 2,
					"numoutlets" : 1,
					"outlettype" : [ "signal" ],
					"patching_rect" : [ 639.0, 2134.0, 34.0, 22.0 ],
					"text" : "*~ 0."
				}

			}
, 			{
				"box" : 				{
					"id" : "obj-122",
					"maxclass" : "message",
					"numinlets" : 2,
					"numoutlets" : 1,
					"outlettype" : [ "" ],
					"patching_rect" : [ 644.0, 2052.0, 45.0, 22.0 ],
					"text" : "$1 100"
				}

			}
, 			{
				"box" : 				{
					"id" : "obj-123",
					"maxclass" : "newobj",
					"numinlets" : 2,
					"numoutlets" : 2,
					"outlettype" : [ "signal", "bang" ],
					"patching_rect" : [ 644.0, 2088.0, 48.0, 22.0 ],
					"text" : "line~ 0."
				}

			}
, 			{
				"box" : 				{
					"id" : "obj-121",
					"maxclass" : "message",
					"numinlets" : 2,
					"numoutlets" : 1,
					"outlettype" : [ "" ],
					"patching_rect" : [ 882.0, 2104.0, 45.0, 22.0 ],
					"text" : "$1 100"
				}

			}
, 			{
				"box" : 				{
					"id" : "obj-119",
					"maxclass" : "newobj",
					"numinlets" : 2,
					"numoutlets" : 2,
					"outlettype" : [ "signal", "bang" ],
					"patching_rect" : [ 882.0, 2140.0, 48.0, 22.0 ],
					"text" : "line~ 0."
				}

			}
, 			{
				"box" : 				{
					"id" : "obj-116",
					"maxclass" : "newobj",
					"numinlets" : 2,
					"numoutlets" : 1,
					"outlettype" : [ "signal" ],
					"patching_rect" : [ 867.0, 2192.0, 34.0, 22.0 ],
					"text" : "*~ 0."
				}

			}
, 			{
				"box" : 				{
					"format" : 6,
					"id" : "obj-110",
					"maxclass" : "flonum",
					"numinlets" : 1,
					"numoutlets" : 2,
					"outlettype" : [ "", "bang" ],
					"parameter_enable" : 0,
					"patching_rect" : [ 1038.0, 1948.0, 50.0, 22.0 ]
				}

			}
, 			{
				"box" : 				{
					"id" : "obj-107",
					"maxclass" : "newobj",
					"numinlets" : 6,
					"numoutlets" : 1,
					"outlettype" : [ "" ],
					"patching_rect" : [ 912.0, 2015.0, 123.0, 22.0 ],
					"text" : "scale 0 4096 0. 1. 0.4"
				}

			}
, 			{
				"box" : 				{
					"id" : "obj-100",
					"maxclass" : "newobj",
					"numinlets" : 0,
					"numoutlets" : 1,
					"outlettype" : [ "" ],
					"patching_rect" : [ 912.0, 1922.0, 41.0, 22.0 ],
					"text" : "r wets"
				}

			}
, 			{
				"box" : 				{
					"id" : "obj-97",
					"maxclass" : "newobj",
					"numinlets" : 1,
					"numoutlets" : 0,
					"patching_rect" : [ 522.0, 156.0, 43.0, 22.0 ],
					"text" : "s wets"
				}

			}
, 			{
				"box" : 				{
					"id" : "obj-88",
					"maxclass" : "newobj",
					"numinlets" : 2,
					"numoutlets" : 1,
					"outlettype" : [ "float" ],
					"patching_rect" : [ 881.0, 2060.0, 29.5, 22.0 ],
					"text" : "!- 1."
				}

			}
, 			{
				"box" : 				{
					"format" : 6,
					"id" : "obj-50",
					"maxclass" : "flonum",
					"numinlets" : 1,
					"numoutlets" : 2,
					"outlettype" : [ "", "bang" ],
					"parameter_enable" : 0,
					"patching_rect" : [ -51.0, 214.0, 50.0, 22.0 ]
				}

			}
, 			{
				"box" : 				{
					"id" : "obj-47",
					"maxclass" : "message",
					"numinlets" : 2,
					"numoutlets" : 1,
					"outlettype" : [ "" ],
					"patching_rect" : [ 1172.0, 104.0, 50.0, 22.0 ],
					"text" : "0.74"
				}

			}
, 			{
				"box" : 				{
					"format" : 6,
					"id" : "obj-37",
					"maxclass" : "flonum",
					"numinlets" : 1,
					"numoutlets" : 2,
					"outlettype" : [ "", "bang" ],
					"parameter_enable" : 0,
					"patching_rect" : [ 216.0, 724.0, 50.0, 22.0 ]
				}

			}
, 			{
				"box" : 				{
					"id" : "obj-20",
					"maxclass" : "newobj",
					"numinlets" : 1,
					"numoutlets" : 0,
					"patching_rect" : [ 639.0, 2337.0, 62.0, 22.0 ],
					"text" : "send~ to3"
				}

			}
, 			{
				"box" : 				{
					"id" : "obj-130",
					"maxclass" : "newobj",
					"numinlets" : 3,
					"numoutlets" : 1,
					"outlettype" : [ "signal" ],
					"patching_rect" : [ 566.5, 648.0, 58.0, 22.0 ],
					"text" : "clip~ -4 4"
				}

			}
, 			{
				"box" : 				{
					"id" : "obj-125",
					"maxclass" : "newobj",
					"numinlets" : 3,
					"numoutlets" : 1,
					"outlettype" : [ "signal" ],
					"patching_rect" : [ 487.0, 664.0, 58.0, 22.0 ],
					"text" : "clip~ -4 4"
				}

			}
, 			{
				"box" : 				{
					"id" : "obj-96",
					"maxclass" : "newobj",
					"numinlets" : 3,
					"numoutlets" : 1,
					"outlettype" : [ "signal" ],
					"patching_rect" : [ 552.0, 917.0, 64.0, 22.0 ],
					"text" : "clip~ -3. 3."
				}

			}
, 			{
				"box" : 				{
					"fontface" : 0,
					"fontname" : "Arial",
					"fontsize" : 12.0,
					"id" : "obj-94",
					"maxclass" : "number~",
					"mode" : 2,
					"numinlets" : 2,
					"numoutlets" : 2,
					"outlettype" : [ "signal", "float" ],
					"patching_rect" : [ 471.0, 1033.0, 56.0, 22.0 ],
					"sig" : 0.0
				}

			}
, 			{
				"box" : 				{
					"id" : "obj-84",
					"maxclass" : "newobj",
					"numinlets" : 3,
					"numoutlets" : 1,
					"outlettype" : [ "signal" ],
					"patching_rect" : [ 278.5, 708.0, 129.0, 22.0 ],
					"text" : "rampsmooth~ 100 100"
				}

			}
, 			{
				"box" : 				{
					"id" : "obj-67",
					"maxclass" : "newobj",
					"numinlets" : 3,
					"numoutlets" : 1,
					"outlettype" : [ "signal" ],
					"patching_rect" : [ -10.5, 702.0, 129.0, 22.0 ],
					"text" : "rampsmooth~ 100 100"
				}

			}
, 			{
				"box" : 				{
					"id" : "obj-66",
					"maxclass" : "newobj",
					"numinlets" : 3,
					"numoutlets" : 1,
					"outlettype" : [ "signal" ],
					"patching_rect" : [ 303.0, 992.0, 156.0, 22.0 ],
					"text" : "rampsmooth~ 40000 40000"
				}

			}
, 			{
				"box" : 				{
					"fontface" : 0,
					"fontname" : "Arial",
					"fontsize" : 12.0,
					"id" : "obj-61",
					"maxclass" : "number~",
					"mode" : 2,
					"numinlets" : 2,
					"numoutlets" : 2,
					"outlettype" : [ "signal", "float" ],
					"patching_rect" : [ 110.0, 914.0, 56.0, 22.0 ],
					"sig" : 0.0
				}

			}
, 			{
				"box" : 				{
					"id" : "obj-49",
					"maxclass" : "newobj",
					"numinlets" : 3,
					"numoutlets" : 1,
					"outlettype" : [ "signal" ],
					"patching_rect" : [ 303.0, 952.0, 60.0, 22.0 ],
					"text" : "clip~ 0. 1."
				}

			}
, 			{
				"box" : 				{
					"format" : 6,
					"id" : "obj-33",
					"maxclass" : "flonum",
					"numinlets" : 1,
					"numoutlets" : 2,
					"outlettype" : [ "", "bang" ],
					"parameter_enable" : 0,
					"patching_rect" : [ 942.0, 161.0, 50.0, 22.0 ]
				}

			}
, 			{
				"box" : 				{
					"format" : 6,
					"id" : "obj-31",
					"maxclass" : "flonum",
					"numinlets" : 1,
					"numoutlets" : 2,
					"outlettype" : [ "", "bang" ],
					"parameter_enable" : 0,
					"patching_rect" : [ 885.0, 161.0, 50.0, 22.0 ]
				}

			}
, 			{
				"box" : 				{
					"id" : "obj-4",
					"maxclass" : "newobj",
					"numinlets" : 3,
					"numoutlets" : 1,
					"outlettype" : [ "signal" ],
					"patching_rect" : [ 832.0, 1001.0, 129.0, 22.0 ],
					"text" : "rampsmooth~ 100 100"
				}

			}
, 			{
				"box" : 				{
					"fontface" : 0,
					"fontname" : "Arial",
					"fontsize" : 12.0,
					"id" : "obj-338",
					"maxclass" : "number~",
					"mode" : 2,
					"numinlets" : 2,
					"numoutlets" : 2,
					"outlettype" : [ "signal", "float" ],
					"patching_rect" : [ 889.0, 929.0, 56.0, 22.0 ],
					"sig" : 0.0
				}

			}
, 			{
				"box" : 				{
					"id" : "obj-305",
					"maxclass" : "button",
					"numinlets" : 1,
					"numoutlets" : 1,
					"outlettype" : [ "bang" ],
					"parameter_enable" : 0,
					"patching_rect" : [ 61.0, 49.0, 24.0, 24.0 ]
				}

			}
, 			{
				"box" : 				{
					"id" : "obj-306",
					"maxclass" : "message",
					"numinlets" : 2,
					"numoutlets" : 1,
					"outlettype" : [ "" ],
					"patching_rect" : [ 60.0, 77.0, 50.0, 22.0 ],
					"text" : "-57.35"
				}

			}
, 			{
				"box" : 				{
					"id" : "obj-307",
					"maxclass" : "message",
					"numinlets" : 2,
					"numoutlets" : 1,
					"outlettype" : [ "" ],
					"patching_rect" : [ -45.5, 77.0, 50.0, 22.0 ],
					"text" : "40.2"
				}

			}
, 			{
				"box" : 				{
					"id" : "obj-308",
					"maxclass" : "message",
					"numinlets" : 2,
					"numoutlets" : 1,
					"outlettype" : [ "" ],
					"patching_rect" : [ -119.5, 77.0, 50.0, 22.0 ],
					"text" : "-19.2"
				}

			}
, 			{
				"box" : 				{
					"id" : "obj-309",
					"maxclass" : "newobj",
					"numinlets" : 2,
					"numoutlets" : 1,
					"outlettype" : [ "float" ],
					"patching_rect" : [ 15.75, 98.0, 29.5, 22.0 ],
					"text" : "!- 0."
				}

			}
, 			{
				"box" : 				{
					"id" : "obj-310",
					"maxclass" : "newobj",
					"numinlets" : 2,
					"numoutlets" : 1,
					"outlettype" : [ "float" ],
					"patching_rect" : [ -130.0, 110.0, 29.5, 22.0 ],
					"text" : "!- 0."
				}

			}
, 			{
				"box" : 				{
					"id" : "obj-311",
					"maxclass" : "newobj",
					"numinlets" : 2,
					"numoutlets" : 1,
					"outlettype" : [ "float" ],
					"patching_rect" : [ -56.0, 105.0, 29.5, 22.0 ],
					"text" : "!- 0."
				}

			}
, 			{
				"box" : 				{
					"format" : 6,
					"id" : "obj-298",
					"maxclass" : "flonum",
					"numinlets" : 1,
					"numoutlets" : 2,
					"outlettype" : [ "", "bang" ],
					"parameter_enable" : 0,
					"patching_rect" : [ 397.0, 298.0, 50.0, 22.0 ]
				}

			}
, 			{
				"box" : 				{
					"format" : 6,
					"id" : "obj-296",
					"maxclass" : "flonum",
					"numinlets" : 1,
					"numoutlets" : 2,
					"outlettype" : [ "", "bang" ],
					"parameter_enable" : 0,
					"patching_rect" : [ 266.0, 315.0, 50.0, 22.0 ]
				}

			}
, 			{
				"box" : 				{
					"id" : "obj-294",
					"maxclass" : "newobj",
					"numinlets" : 3,
					"numoutlets" : 1,
					"outlettype" : [ "signal" ],
					"patching_rect" : [ 124.0, 1168.0, 58.0, 22.0 ],
					"text" : "clip~ -1 1"
				}

			}
, 			{
				"box" : 				{
					"id" : "obj-292",
					"maxclass" : "newobj",
					"numinlets" : 2,
					"numoutlets" : 1,
					"outlettype" : [ "float" ],
					"patching_rect" : [ 172.0, 757.0, 29.5, 22.0 ],
					"text" : "/ 4."
				}

			}
, 			{
				"box" : 				{
					"id" : "obj-290",
					"maxclass" : "newobj",
					"numinlets" : 6,
					"numoutlets" : 1,
					"outlettype" : [ "" ],
					"patching_rect" : [ 223.0, 425.0, 104.0, 22.0 ],
					"text" : "scale 0. 127. -3. 3"
				}

			}
, 			{
				"box" : 				{
					"id" : "obj-288",
					"maxclass" : "newobj",
					"numinlets" : 2,
					"numoutlets" : 1,
					"outlettype" : [ "signal" ],
					"patching_rect" : [ 307.0, 1487.0, 40.0, 22.0 ],
					"text" : "*~ 0.4"
				}

			}
, 			{
				"box" : 				{
					"id" : "obj-287",
					"maxclass" : "newobj",
					"numinlets" : 6,
					"numoutlets" : 1,
					"outlettype" : [ "signal" ],
					"patching_rect" : [ 832.0, 855.0, 104.0, 22.0 ],
					"text" : "scale~ -3. 10 0. 1."
				}

			}
, 			{
				"box" : 				{
					"format" : 6,
					"id" : "obj-233",
					"maxclass" : "flonum",
					"numinlets" : 1,
					"numoutlets" : 2,
					"outlettype" : [ "", "bang" ],
					"parameter_enable" : 0,
					"patching_rect" : [ 637.0, 1400.0, 50.0, 22.0 ]
				}

			}
, 			{
				"box" : 				{
					"format" : 6,
					"id" : "obj-192",
					"maxclass" : "flonum",
					"numinlets" : 1,
					"numoutlets" : 2,
					"outlettype" : [ "", "bang" ],
					"parameter_enable" : 0,
					"patching_rect" : [ 564.0, 1401.0, 50.0, 22.0 ]
				}

			}
, 			{
				"box" : 				{
					"format" : 6,
					"id" : "obj-177",
					"maxclass" : "flonum",
					"numinlets" : 1,
					"numoutlets" : 2,
					"outlettype" : [ "", "bang" ],
					"parameter_enable" : 0,
					"patching_rect" : [ 498.0, 1400.0, 50.0, 22.0 ]
				}

			}
, 			{
				"box" : 				{
					"format" : 6,
					"id" : "obj-162",
					"maxclass" : "flonum",
					"numinlets" : 1,
					"numoutlets" : 2,
					"outlettype" : [ "", "bang" ],
					"parameter_enable" : 0,
					"patching_rect" : [ 425.0, 1398.0, 50.0, 22.0 ]
				}

			}
, 			{
				"box" : 				{
					"id" : "obj-98",
					"maxclass" : "newobj",
					"numinlets" : 5,
					"numoutlets" : 2,
					"outlettype" : [ "signal", "signal" ],
					"patching_rect" : [ 307.0, 1436.0, 61.0, 22.0 ],
					"text" : "yafr2"
				}

			}
, 			{
				"box" : 				{
					"id" : "obj-69",
					"maxclass" : "newobj",
					"numinlets" : 3,
					"numoutlets" : 1,
					"outlettype" : [ "float" ],
					"patching_rect" : [ 667.0, 136.0, 53.0, 22.0 ],
					"text" : "slide 2 2"
				}

			}
, 			{
				"box" : 				{
					"id" : "obj-68",
					"maxclass" : "newobj",
					"numinlets" : 3,
					"numoutlets" : 1,
					"outlettype" : [ "float" ],
					"patching_rect" : [ 624.0, 162.0, 53.0, 22.0 ],
					"text" : "slide 4 4"
				}

			}
, 			{
				"box" : 				{
					"id" : "obj-55",
					"maxclass" : "newobj",
					"numinlets" : 3,
					"numoutlets" : 1,
					"outlettype" : [ "float" ],
					"patching_rect" : [ 226.5, 126.0, 53.0, 22.0 ],
					"text" : "slide 2 2"
				}

			}
, 			{
				"box" : 				{
					"id" : "obj-46",
					"maxclass" : "newobj",
					"numinlets" : 3,
					"numoutlets" : 1,
					"outlettype" : [ "float" ],
					"patching_rect" : [ 78.5, 136.0, 53.0, 22.0 ],
					"text" : "slide 4 4"
				}

			}
, 			{
				"box" : 				{
					"id" : "obj-22",
					"maxclass" : "newobj",
					"numinlets" : 3,
					"numoutlets" : 1,
					"outlettype" : [ "float" ],
					"patching_rect" : [ 11.5, 152.0, 53.0, 22.0 ],
					"text" : "slide 4 4"
				}

			}
, 			{
				"box" : 				{
					"id" : "obj-258",
					"maxclass" : "preset",
					"numinlets" : 1,
					"numoutlets" : 5,
					"outlettype" : [ "preset", "int", "preset", "int", "" ],
					"patching_rect" : [ 827.0, 315.0, 100.0, 40.0 ],
					"preset_data" : [ 						{
							"number" : 1,
							"data" : [ 6, "obj-11", "pictslider", "list", 63, 63, 6, "obj-9", "pictslider", "list", 63, 63, 6, "obj-18", "pictslider", "list", 53, 22, 5, "obj-91", "umenu", "int", 0, 5, "obj-89", "toggle", "int", 0, 5, "obj-58", "toggle", "int", 1, 5, "obj-57", "number", "int", 25, 6, "obj-41", "multislider", "list", 250, 250, 6, "obj-73", "multislider", "list", 156, 0, 6, "obj-72", "multislider", "list", 250, 250, 5, "obj-131", "slider", "float", 16.0, 5, "obj-167", "flonum", "float", 0.877256214618683, 5, "obj-179", "slider", "float", 63.0, 5, "obj-221", "flonum", "float", 2000.0, 5, "obj-223", "flonum", "float", 0.0, 5, "obj-225", "flonum", "float", 3000.0, 5, "obj-29", "umenu", "int", 0, 5, "obj-27", "toggle", "int", 0, 5, "obj-25", "flonum", "float", 500.0, 5, "obj-111", "flonum", "float", 500.0, 5, "obj-178", "slider", "float", 63.0, 5, "obj-162", "flonum", "float", 80.0, 5, "obj-177", "flonum", "float", 80.0, 5, "obj-192", "flonum", "float", 10.0, 5, "obj-233", "flonum", "float", 80.0, 5, "obj-296", "flonum", "float", -8000.0, 5, "obj-298", "flonum", "float", 8000.0, 6, "obj-338", "number~", "list", 0.0, 0.0, 5, "obj-31", "flonum", "float", 0.0, 5, "obj-33", "flonum", "float", 0.0, 6, "obj-61", "number~", "list", 0.0, 0.0, 6, "obj-94", "number~", "list", 0.0, 0.0, 5, "obj-37", "flonum", "float", 0.200000002980232, 5, "obj-50", "flonum", "float", 0.949999988079071, 5, "obj-110", "flonum", "float", 0.400000005960464, 6, "obj-133", "number~", "list", 0.0, 0.0, 6, "obj-134", "number~", "list", 0.0, 0.0, 5, "obj-145", "number", "int", 80, 5, "obj-150", "number", "int", 80, 5, "obj-156", "number", "int", 80, 5, "obj-158", "number", "int", 80, 6, "obj-2", "gain~", "list", 125, 10.0, 6, "obj-3", "gain~", "list", 121, 10.0 ]
						}
 ]
				}

			}
, 			{
				"box" : 				{
					"id" : "obj-256",
					"maxclass" : "button",
					"numinlets" : 1,
					"numoutlets" : 1,
					"outlettype" : [ "bang" ],
					"parameter_enable" : 0,
					"patching_rect" : [ 1133.0, 42.0, 24.0, 24.0 ]
				}

			}
, 			{
				"box" : 				{
					"id" : "obj-253",
					"maxclass" : "message",
					"numinlets" : 2,
					"numoutlets" : 1,
					"outlettype" : [ "" ],
					"patching_rect" : [ 959.0, 18.0, 50.0, 22.0 ],
					"text" : "-0.74"
				}

			}
, 			{
				"box" : 				{
					"id" : "obj-250",
					"maxclass" : "message",
					"numinlets" : 2,
					"numoutlets" : 1,
					"outlettype" : [ "" ],
					"patching_rect" : [ 856.0, 37.0, 50.0, 22.0 ],
					"text" : "0.65"
				}

			}
, 			{
				"box" : 				{
					"id" : "obj-245",
					"maxclass" : "message",
					"numinlets" : 2,
					"numoutlets" : 1,
					"outlettype" : [ "" ],
					"patching_rect" : [ 772.0, 19.0, 50.0, 22.0 ],
					"text" : "0.14"
				}

			}
, 			{
				"box" : 				{
					"id" : "obj-209",
					"maxclass" : "newobj",
					"numinlets" : 2,
					"numoutlets" : 1,
					"outlettype" : [ "float" ],
					"patching_rect" : [ 1087.75, 91.0, 29.5, 22.0 ],
					"text" : "!- 0."
				}

			}
, 			{
				"box" : 				{
					"id" : "obj-224",
					"maxclass" : "newobj",
					"numinlets" : 2,
					"numoutlets" : 1,
					"outlettype" : [ "float" ],
					"patching_rect" : [ 942.0, 103.0, 29.5, 22.0 ],
					"text" : "!- 0."
				}

			}
, 			{
				"box" : 				{
					"id" : "obj-231",
					"maxclass" : "newobj",
					"numinlets" : 2,
					"numoutlets" : 1,
					"outlettype" : [ "float" ],
					"patching_rect" : [ 1016.0, 98.0, 29.5, 22.0 ],
					"text" : "!- 0."
				}

			}
, 			{
				"box" : 				{
					"id" : "obj-175",
					"maxclass" : "newobj",
					"numinlets" : 6,
					"numoutlets" : 1,
					"outlettype" : [ "" ],
					"patching_rect" : [ 1288.0, 148.0, 107.0, 22.0 ],
					"text" : "scale 1. -1. 0. 127."
				}

			}
, 			{
				"box" : 				{
					"id" : "obj-169",
					"maxclass" : "newobj",
					"numinlets" : 6,
					"numoutlets" : 1,
					"outlettype" : [ "" ],
					"patching_rect" : [ 1127.0, 148.0, 107.0, 22.0 ],
					"text" : "scale -1. 1. 0. 127."
				}

			}
, 			{
				"box" : 				{
					"id" : "obj-163",
					"maxclass" : "newobj",
					"numinlets" : 6,
					"numoutlets" : 1,
					"outlettype" : [ "" ],
					"patching_rect" : [ 1001.0, 185.0, 107.0, 22.0 ],
					"text" : "scale -1. 1. 0. 127."
				}

			}
, 			{
				"box" : 				{
					"id" : "obj-196",
					"maxclass" : "newobj",
					"numinlets" : 2,
					"numoutlets" : 1,
					"outlettype" : [ "signal" ],
					"patching_rect" : [ 560.0, 1042.0, 34.0, 22.0 ],
					"text" : "*~ 1."
				}

			}
, 			{
				"box" : 				{
					"id" : "obj-195",
					"maxclass" : "newobj",
					"numinlets" : 6,
					"numoutlets" : 1,
					"outlettype" : [ "" ],
					"patching_rect" : [ 667.0, 176.0, 134.0, 22.0 ],
					"text" : "scale -200. 200. 0. 127."
				}

			}
, 			{
				"box" : 				{
					"id" : "obj-194",
					"maxclass" : "newobj",
					"numinlets" : 6,
					"numoutlets" : 1,
					"outlettype" : [ "" ],
					"patching_rect" : [ 624.0, 219.0, 134.0, 22.0 ],
					"text" : "scale -200. 200. 0. 127."
				}

			}
, 			{
				"box" : 				{
					"id" : "obj-184",
					"maxclass" : "newobj",
					"numinlets" : 3,
					"numoutlets" : 1,
					"outlettype" : [ "signal" ],
					"patching_rect" : [ 139.5, 559.0, 100.0, 22.0 ],
					"text" : "slide~ 5000. 500."
				}

			}
, 			{
				"box" : 				{
					"id" : "obj-183",
					"maxclass" : "newobj",
					"numinlets" : 1,
					"numoutlets" : 1,
					"outlettype" : [ "signal" ],
					"patching_rect" : [ 160.0, 465.0, 41.0, 22.0 ],
					"text" : "sig~"
				}

			}
, 			{
				"box" : 				{
					"id" : "obj-180",
					"maxclass" : "newobj",
					"numinlets" : 6,
					"numoutlets" : 1,
					"outlettype" : [ "" ],
					"patching_rect" : [ 309.5, 210.5, 147.0, 22.0 ],
					"text" : "scale -1000. 1000. 0. 127."
				}

			}
, 			{
				"box" : 				{
					"id" : "obj-178",
					"maxclass" : "slider",
					"numinlets" : 1,
					"numoutlets" : 1,
					"outlettype" : [ "" ],
					"parameter_enable" : 0,
					"patching_rect" : [ 173.0, 238.0, 15.0, 128.5 ]
				}

			}
, 			{
				"box" : 				{
					"id" : "obj-159",
					"maxclass" : "newobj",
					"numinlets" : 3,
					"numoutlets" : 1,
					"outlettype" : [ "" ],
					"patching_rect" : [ 168.0, 801.0, 57.0, 22.0 ],
					"text" : "clip -1. 1."
				}

			}
, 			{
				"box" : 				{
					"id" : "obj-155",
					"maxclass" : "newobj",
					"numinlets" : 1,
					"numoutlets" : 1,
					"outlettype" : [ "signal" ],
					"patching_rect" : [ 168.0, 875.0, 35.0, 22.0 ],
					"text" : "abs~"
				}

			}
, 			{
				"box" : 				{
					"id" : "obj-154",
					"maxclass" : "newobj",
					"numinlets" : 2,
					"numoutlets" : 1,
					"outlettype" : [ "signal" ],
					"patching_rect" : [ 124.666687000000138, 1049.0, 34.0, 22.0 ],
					"text" : "*~ 1."
				}

			}
, 			{
				"box" : 				{
					"id" : "obj-147",
					"maxclass" : "newobj",
					"numinlets" : 1,
					"numoutlets" : 1,
					"outlettype" : [ "signal" ],
					"patching_rect" : [ 168.0, 838.0, 31.0, 22.0 ],
					"text" : "sig~"
				}

			}
, 			{
				"box" : 				{
					"id" : "obj-149",
					"maxclass" : "newobj",
					"numinlets" : 2,
					"numoutlets" : 1,
					"outlettype" : [ "float" ],
					"patching_rect" : [ 172.0, 708.0, 29.5, 22.0 ],
					"text" : "+ 1."
				}

			}
, 			{
				"box" : 				{
					"id" : "obj-151",
					"maxclass" : "newobj",
					"numinlets" : 2,
					"numoutlets" : 1,
					"outlettype" : [ "float" ],
					"patching_rect" : [ 172.0, 684.0, 31.0, 22.0 ],
					"text" : "* -2."
				}

			}
, 			{
				"box" : 				{
					"id" : "obj-153",
					"maxclass" : "newobj",
					"numinlets" : 3,
					"numoutlets" : 1,
					"outlettype" : [ "" ],
					"patching_rect" : [ 172.0, 639.0, 205.0, 22.0 ],
					"text" : "expr sqrt($f1*$f1 + $f2*$f2 + $f3*$f3)"
				}

			}
, 			{
				"box" : 				{
					"format" : 6,
					"id" : "obj-111",
					"maxclass" : "flonum",
					"numinlets" : 1,
					"numoutlets" : 2,
					"outlettype" : [ "", "bang" ],
					"parameter_enable" : 0,
					"patching_rect" : [ 327.0, 469.0, 50.0, 22.0 ]
				}

			}
, 			{
				"box" : 				{
					"format" : 6,
					"id" : "obj-25",
					"maxclass" : "flonum",
					"numinlets" : 1,
					"numoutlets" : 2,
					"outlettype" : [ "", "bang" ],
					"parameter_enable" : 0,
					"patching_rect" : [ 261.0, 469.0, 50.0, 22.0 ]
				}

			}
, 			{
				"box" : 				{
					"id" : "obj-174",
					"maxclass" : "newobj",
					"numinlets" : 3,
					"numoutlets" : 1,
					"outlettype" : [ "float" ],
					"patching_rect" : [ 366.0, 126.0, 53.0, 22.0 ],
					"text" : "slide 2 2"
				}

			}
, 			{
				"box" : 				{
					"id" : "obj-24",
					"maxclass" : "newobj",
					"numinlets" : 0,
					"numoutlets" : 1,
					"outlettype" : [ "" ],
					"patching_rect" : [ 234.0, -1.0, 38.0, 22.0 ],
					"text" : "r ctrl6"
				}

			}
, 			{
				"box" : 				{
					"fontname" : "Arial",
					"fontsize" : 13.0,
					"id" : "obj-21",
					"maxclass" : "newobj",
					"numinlets" : 0,
					"numoutlets" : 1,
					"outlettype" : [ "" ],
					"patching_rect" : [ 910.0, 1161.5, 65.0, 23.0 ],
					"text" : "r to-comp"
				}

			}
, 			{
				"box" : 				{
					"id" : "obj-27",
					"maxclass" : "toggle",
					"numinlets" : 1,
					"numoutlets" : 1,
					"outlettype" : [ "int" ],
					"parameter_enable" : 0,
					"patching_rect" : [ 670.5, 1081.0, 20.0, 20.0 ]
				}

			}
, 			{
				"box" : 				{
					"fontface" : 0,
					"fontname" : "Arial",
					"fontsize" : 11.595186999999999,
					"id" : "obj-29",
					"items" : [ "Guitar", ",", "Bass", ",", "Vocal", ",", "Drums", ",", "Program", "Material" ],
					"maxclass" : "umenu",
					"numinlets" : 1,
					"numoutlets" : 3,
					"outlettype" : [ "int", "", "" ],
					"parameter_enable" : 0,
					"patching_rect" : [ 866.0, 1109.0, 111.0, 21.0 ]
				}

			}
, 			{
				"box" : 				{
					"fontname" : "Arial",
					"fontsize" : 13.0,
					"id" : "obj-32",
					"maxclass" : "message",
					"numinlets" : 2,
					"numoutlets" : 1,
					"outlettype" : [ "" ],
					"patching_rect" : [ 866.0, 1135.0, 109.0, 23.0 ],
					"text" : "choosePreset $1"
				}

			}
, 			{
				"box" : 				{
					"fontname" : "Arial",
					"fontsize" : 13.0,
					"id" : "obj-38",
					"maxclass" : "message",
					"numinlets" : 2,
					"numoutlets" : 1,
					"outlettype" : [ "" ],
					"patching_rect" : [ 670.5, 1107.0, 71.0, 23.0 ],
					"text" : "bypass $1"
				}

			}
, 			{
				"box" : 				{
					"fontname" : "Arial",
					"fontsize" : 13.0,
					"id" : "obj-39",
					"maxclass" : "newobj",
					"numinlets" : 2,
					"numoutlets" : 4,
					"outlettype" : [ "signal", "signal", "list", "list" ],
					"patching_rect" : [ 752.666687000000138, 1223.5, 78.0, 23.0 ],
					"text" : "omx.comp~"
				}

			}
, 			{
				"box" : 				{
					"bgcolor" : [ 0.407843, 0.407843, 0.407843, 1.0 ],
					"coldcolor" : [ 0.0, 0.658824, 0.0, 1.0 ],
					"id" : "obj-45",
					"interval" : 100,
					"maxclass" : "meter~",
					"numinlets" : 1,
					"numoutlets" : 1,
					"outlettype" : [ "float" ],
					"patching_rect" : [ 752.666687000000138, 1291.0, 19.0, 66.0 ],
					"tepidcolor" : [ 0.6, 0.729412, 0.0, 1.0 ],
					"warmcolor" : [ 0.85098, 0.85098, 0.0, 1.0 ]
				}

			}
, 			{
				"box" : 				{
					"id" : "obj-230",
					"maxclass" : "newobj",
					"numinlets" : 3,
					"numoutlets" : 1,
					"outlettype" : [ "signal" ],
					"patching_rect" : [ 104.5, 516.0, 107.0, 22.0 ],
					"text" : "slide~ 1000. 1000."
				}

			}
, 			{
				"box" : 				{
					"id" : "obj-229",
					"maxclass" : "newobj",
					"numinlets" : 3,
					"numoutlets" : 1,
					"outlettype" : [ "signal" ],
					"patching_rect" : [ -4.5, 516.0, 107.0, 22.0 ],
					"text" : "slide~ 1000. 1000."
				}

			}
, 			{
				"box" : 				{
					"format" : 6,
					"id" : "obj-225",
					"maxclass" : "flonum",
					"numinlets" : 1,
					"numoutlets" : 2,
					"outlettype" : [ "", "bang" ],
					"parameter_enable" : 0,
					"patching_rect" : [ 1382.0, 379.0, 76.0, 22.0 ]
				}

			}
, 			{
				"box" : 				{
					"format" : 6,
					"id" : "obj-223",
					"maxclass" : "flonum",
					"numinlets" : 1,
					"numoutlets" : 2,
					"outlettype" : [ "", "bang" ],
					"parameter_enable" : 0,
					"patching_rect" : [ 1382.0, 415.0, 76.0, 22.0 ]
				}

			}
, 			{
				"box" : 				{
					"format" : 6,
					"id" : "obj-221",
					"maxclass" : "flonum",
					"numinlets" : 1,
					"numoutlets" : 2,
					"outlettype" : [ "", "bang" ],
					"parameter_enable" : 0,
					"patching_rect" : [ 1382.0, 443.0, 76.0, 22.0 ]
				}

			}
, 			{
				"box" : 				{
					"id" : "obj-219",
					"maxclass" : "newobj",
					"numinlets" : 3,
					"numoutlets" : 1,
					"outlettype" : [ "signal" ],
					"patching_rect" : [ 1366.5, 587.0, 107.0, 22.0 ],
					"text" : "slide~ 1000. 5000."
				}

			}
, 			{
				"box" : 				{
					"id" : "obj-218",
					"maxclass" : "newobj",
					"numinlets" : 3,
					"numoutlets" : 1,
					"outlettype" : [ "signal" ],
					"patching_rect" : [ 1194.0, 587.0, 107.0, 22.0 ],
					"text" : "slide~ 1000. 5000."
				}

			}
, 			{
				"box" : 				{
					"id" : "obj-217",
					"maxclass" : "newobj",
					"numinlets" : 3,
					"numoutlets" : 1,
					"outlettype" : [ "signal" ],
					"patching_rect" : [ 984.0, 591.0, 107.0, 22.0 ],
					"text" : "slide~ 1000. 5000."
				}

			}
, 			{
				"box" : 				{
					"id" : "obj-216",
					"maxclass" : "newobj",
					"numinlets" : 3,
					"numoutlets" : 1,
					"outlettype" : [ "signal" ],
					"patching_rect" : [ 1301.0, 551.0, 107.0, 22.0 ],
					"text" : "slide~ 5000. 1000."
				}

			}
, 			{
				"box" : 				{
					"id" : "obj-215",
					"maxclass" : "newobj",
					"numinlets" : 3,
					"numoutlets" : 1,
					"outlettype" : [ "signal" ],
					"patching_rect" : [ 1177.0, 547.0, 107.0, 22.0 ],
					"text" : "slide~ 5000. 1000."
				}

			}
, 			{
				"box" : 				{
					"id" : "obj-214",
					"maxclass" : "newobj",
					"numinlets" : 3,
					"numoutlets" : 1,
					"outlettype" : [ "signal" ],
					"patching_rect" : [ 1053.0, 547.0, 107.0, 22.0 ],
					"text" : "slide~ 5000. 1000."
				}

			}
, 			{
				"box" : 				{
					"id" : "obj-211",
					"maxclass" : "newobj",
					"numinlets" : 2,
					"numoutlets" : 1,
					"outlettype" : [ "signal" ],
					"patching_rect" : [ 807.0, 511.0, 34.0, 22.0 ],
					"text" : "*~ 2."
				}

			}
, 			{
				"box" : 				{
					"id" : "obj-212",
					"maxclass" : "newobj",
					"numinlets" : 3,
					"numoutlets" : 1,
					"outlettype" : [ "signal" ],
					"patching_rect" : [ 807.0, 478.0, 107.0, 22.0 ],
					"text" : "slide~ 1000. 1000."
				}

			}
, 			{
				"box" : 				{
					"id" : "obj-210",
					"maxclass" : "newobj",
					"numinlets" : 2,
					"numoutlets" : 1,
					"outlettype" : [ "signal" ],
					"patching_rect" : [ 596.0, 567.0, 34.0, 22.0 ],
					"text" : "*~ 2."
				}

			}
, 			{
				"box" : 				{
					"id" : "obj-207",
					"maxclass" : "newobj",
					"numinlets" : 3,
					"numoutlets" : 1,
					"outlettype" : [ "signal" ],
					"patching_rect" : [ 847.0, 567.0, 107.0, 22.0 ],
					"text" : "slide~ 1000. 1000."
				}

			}
, 			{
				"box" : 				{
					"id" : "obj-206",
					"maxclass" : "newobj",
					"numinlets" : 3,
					"numoutlets" : 1,
					"outlettype" : [ "signal" ],
					"patching_rect" : [ 634.5, 506.0, 110.0, 22.0 ],
					"text" : "slide~ 5000. 1000.."
				}

			}
, 			{
				"box" : 				{
					"id" : "obj-198",
					"maxclass" : "newobj",
					"numinlets" : 6,
					"numoutlets" : 1,
					"outlettype" : [ "" ],
					"patching_rect" : [ 139.5, 176.0, 147.0, 22.0 ],
					"text" : "scale -1000. 1000. 0. 127."
				}

			}
, 			{
				"box" : 				{
					"id" : "obj-197",
					"maxclass" : "newobj",
					"numinlets" : 6,
					"numoutlets" : 1,
					"outlettype" : [ "" ],
					"patching_rect" : [ 11.5, 214.0, 147.0, 22.0 ],
					"text" : "scale -1000. 1000. 0. 127."
				}

			}
, 			{
				"box" : 				{
					"id" : "obj-188",
					"maxclass" : "newobj",
					"numinlets" : 1,
					"numoutlets" : 12,
					"outlettype" : [ "float", "float", "float", "float", "float", "float", "float", "float", "float", "float", "int", "int" ],
					"patching_rect" : [ 234.0, 37.0, 134.5, 22.0 ],
					"text" : "unpack f f f f f f f f f f i i"
				}

			}
, 			{
				"box" : 				{
					"id" : "obj-185",
					"maxclass" : "newobj",
					"numinlets" : 6,
					"numoutlets" : 1,
					"outlettype" : [ "" ],
					"patching_rect" : [ 366.0, 153.0, 134.0, 22.0 ],
					"text" : "scale -200. 200. 0. 127."
				}

			}
, 			{
				"box" : 				{
					"id" : "obj-182",
					"maxclass" : "newobj",
					"numinlets" : 8,
					"numoutlets" : 1,
					"outlettype" : [ "signal" ],
					"patching_rect" : [ 58.0, 988.0, 200.0, 22.0 ],
					"text" : "nn~ rave_gtr8.ts decode @enable 1"
				}

			}
, 			{
				"box" : 				{
					"id" : "obj-179",
					"maxclass" : "slider",
					"numinlets" : 1,
					"numoutlets" : 1,
					"outlettype" : [ "" ],
					"parameter_enable" : 0,
					"patching_rect" : [ 667.0, 269.0, 20.0, 140.0 ]
				}

			}
, 			{
				"box" : 				{
					"id" : "obj-172",
					"maxclass" : "newobj",
					"numinlets" : 3,
					"numoutlets" : 1,
					"outlettype" : [ "signal" ],
					"patching_rect" : [ 552.0, 889.0, 87.0, 22.0 ],
					"text" : "slide~ 1000. 0."
				}

			}
, 			{
				"box" : 				{
					"id" : "obj-171",
					"maxclass" : "newobj",
					"numinlets" : 1,
					"numoutlets" : 1,
					"outlettype" : [ "signal" ],
					"patching_rect" : [ 745.0, 478.0, 41.0, 22.0 ],
					"text" : "sig~"
				}

			}
, 			{
				"box" : 				{
					"id" : "obj-170",
					"maxclass" : "newobj",
					"numinlets" : 6,
					"numoutlets" : 1,
					"outlettype" : [ "" ],
					"patching_rect" : [ 749.0, 439.0, 107.0, 22.0 ],
					"text" : "scale 0. 127. -3. 3."
				}

			}
, 			{
				"box" : 				{
					"id" : "obj-164",
					"maxclass" : "newobj",
					"numinlets" : 1,
					"numoutlets" : 1,
					"outlettype" : [ "signal" ],
					"patching_rect" : [ 487.0, 757.0, 31.0, 22.0 ],
					"text" : "sig~"
				}

			}
, 			{
				"box" : 				{
					"id" : "obj-165",
					"maxclass" : "newobj",
					"numinlets" : 2,
					"numoutlets" : 1,
					"outlettype" : [ "float" ],
					"patching_rect" : [ 575.0, 689.0, 29.5, 22.0 ],
					"text" : "+ 1."
				}

			}
, 			{
				"box" : 				{
					"id" : "obj-166",
					"maxclass" : "newobj",
					"numinlets" : 2,
					"numoutlets" : 1,
					"outlettype" : [ "float" ],
					"patching_rect" : [ 686.0, 660.0, 31.0, 22.0 ],
					"text" : "* -3."
				}

			}
, 			{
				"box" : 				{
					"format" : 6,
					"id" : "obj-167",
					"maxclass" : "flonum",
					"numinlets" : 1,
					"numoutlets" : 2,
					"outlettype" : [ "", "bang" ],
					"parameter_enable" : 0,
					"patching_rect" : [ 575.0, 724.0, 50.0, 22.0 ]
				}

			}
, 			{
				"box" : 				{
					"id" : "obj-168",
					"maxclass" : "newobj",
					"numinlets" : 3,
					"numoutlets" : 1,
					"outlettype" : [ "" ],
					"patching_rect" : [ 655.0, 609.0, 205.0, 22.0 ],
					"text" : "expr sqrt($f1*$f1 + $f2*$f2 + $f3*$f3)"
				}

			}
, 			{
				"box" : 				{
					"id" : "obj-131",
					"maxclass" : "slider",
					"numinlets" : 1,
					"numoutlets" : 1,
					"outlettype" : [ "" ],
					"parameter_enable" : 0,
					"patching_rect" : [ 1271.5, 276.5, 20.0, 140.0 ]
				}

			}
, 			{
				"box" : 				{
					"id" : "obj-128",
					"maxclass" : "newobj",
					"numinlets" : 1,
					"numoutlets" : 1,
					"outlettype" : [ "signal" ],
					"patching_rect" : [ 1334.0, 516.0, 41.0, 22.0 ],
					"text" : "sig~"
				}

			}
, 			{
				"box" : 				{
					"id" : "obj-129",
					"maxclass" : "newobj",
					"numinlets" : 6,
					"numoutlets" : 1,
					"outlettype" : [ "" ],
					"patching_rect" : [ 1334.0, 478.0, 107.0, 22.0 ],
					"text" : "scale 0. 127. -5. 5."
				}

			}
, 			{
				"box" : 				{
					"id" : "obj-1",
					"maxclass" : "newobj",
					"numinlets" : 8,
					"numoutlets" : 1,
					"outlettype" : [ "signal" ],
					"patching_rect" : [ 560.0, 988.0, 206.0, 22.0 ],
					"text" : "nn~ rave_mm8.ts decode @enable 1"
				}

			}
, 			{
				"box" : 				{
					"id" : "obj-99",
					"maxclass" : "newobj",
					"numinlets" : 2,
					"numoutlets" : 1,
					"outlettype" : [ "signal" ],
					"patching_rect" : [ 124.666687000000138, 1108.5, 75.0, 22.0 ],
					"text" : "overdrive~ 2"
				}

			}
, 			{
				"box" : 				{
					"fontname" : "Arial",
					"fontsize" : 13.0,
					"id" : "obj-63",
					"maxclass" : "comment",
					"numinlets" : 1,
					"numoutlets" : 0,
					"patching_rect" : [ 232.0, 1916.5, 61.0, 21.0 ],
					"text" : "Metering",
					"textcolor" : [ 0.5, 0.5, 0.5, 1.0 ]
				}

			}
, 			{
				"box" : 				{
					"fontname" : "Arial",
					"fontsize" : 13.0,
					"id" : "obj-64",
					"maxclass" : "message",
					"numinlets" : 2,
					"numoutlets" : 1,
					"outlettype" : [ "" ],
					"patching_rect" : [ 253.0, 2008.0, 41.0, 23.0 ],
					"text" : "$5 $6"
				}

			}
, 			{
				"box" : 				{
					"fontname" : "Arial",
					"fontsize" : 13.0,
					"id" : "obj-65",
					"maxclass" : "message",
					"numinlets" : 2,
					"numoutlets" : 1,
					"outlettype" : [ "" ],
					"patching_rect" : [ 172.0, 2008.0, 41.0, 23.0 ],
					"text" : "$3 $4"
				}

			}
, 			{
				"box" : 				{
					"fontname" : "Arial",
					"fontsize" : 13.0,
					"id" : "obj-70",
					"maxclass" : "message",
					"numinlets" : 2,
					"numoutlets" : 1,
					"outlettype" : [ "" ],
					"patching_rect" : [ 97.0, 2008.0, 41.0, 23.0 ],
					"text" : "$1 $2"
				}

			}
, 			{
				"box" : 				{
					"fontname" : "Arial",
					"fontsize" : 13.0,
					"id" : "obj-71",
					"maxclass" : "comment",
					"numinlets" : 1,
					"numoutlets" : 0,
					"patching_rect" : [ 270.0, 2033.0, 51.0, 21.0 ],
					"text" : "Limiter"
				}

			}
, 			{
				"box" : 				{
					"candicane2" : [ 0.145098, 0.203922, 0.356863, 1.0 ],
					"candicane3" : [ 0.290196, 0.411765, 0.713726, 1.0 ],
					"candicane4" : [ 0.439216, 0.619608, 0.070588, 1.0 ],
					"candicane5" : [ 0.584314, 0.827451, 0.431373, 1.0 ],
					"candicane6" : [ 0.733333, 0.035294, 0.788235, 1.0 ],
					"candicane7" : [ 0.878431, 0.243137, 0.145098, 1.0 ],
					"candicane8" : [ 0.027451, 0.447059, 0.501961, 1.0 ],
					"candycane" : 2,
					"id" : "obj-72",
					"maxclass" : "multislider",
					"numinlets" : 1,
					"numoutlets" : 2,
					"outlettype" : [ "", "" ],
					"parameter_enable" : 0,
					"patching_rect" : [ 253.0, 2076.0, 47.0, 94.0 ],
					"peakcolor" : [ 0.498039, 0.498039, 0.498039, 1.0 ],
					"setminmax" : [ 0.0, 250.0 ],
					"setstyle" : 1,
					"settype" : 0,
					"size" : 2,
					"spacing" : 1
				}

			}
, 			{
				"box" : 				{
					"fontname" : "Arial",
					"fontsize" : 13.0,
					"id" : "obj-34",
					"maxclass" : "comment",
					"numinlets" : 1,
					"numoutlets" : 0,
					"patching_rect" : [ 248.0, 2170.0, 60.0, 21.0 ],
					"text" : "left right"
				}

			}
, 			{
				"box" : 				{
					"fontname" : "Arial",
					"fontsize" : 13.0,
					"id" : "obj-35",
					"linecount" : 2,
					"maxclass" : "comment",
					"numinlets" : 1,
					"numoutlets" : 0,
					"patching_rect" : [ 186.0, 2033.0, 51.0, 36.0 ],
					"text" : "Noise \nGate"
				}

			}
, 			{
				"box" : 				{
					"candicane2" : [ 0.145098, 0.203922, 0.356863, 1.0 ],
					"candicane3" : [ 0.290196, 0.411765, 0.713726, 1.0 ],
					"candicane4" : [ 0.439216, 0.619608, 0.070588, 1.0 ],
					"candicane5" : [ 0.584314, 0.827451, 0.431373, 1.0 ],
					"candicane6" : [ 0.733333, 0.035294, 0.788235, 1.0 ],
					"candicane7" : [ 0.878431, 0.243137, 0.145098, 1.0 ],
					"candicane8" : [ 0.027451, 0.447059, 0.501961, 1.0 ],
					"candycane" : 2,
					"id" : "obj-73",
					"maxclass" : "multislider",
					"numinlets" : 1,
					"numoutlets" : 2,
					"outlettype" : [ "", "" ],
					"parameter_enable" : 0,
					"patching_rect" : [ 172.0, 2076.0, 47.0, 94.0 ],
					"peakcolor" : [ 0.498039, 0.498039, 0.498039, 1.0 ],
					"setminmax" : [ 0.0, 250.0 ],
					"setstyle" : 1,
					"settype" : 0,
					"size" : 2,
					"spacing" : 1
				}

			}
, 			{
				"box" : 				{
					"fontname" : "Arial",
					"fontsize" : 13.0,
					"id" : "obj-74",
					"maxclass" : "comment",
					"numinlets" : 1,
					"numoutlets" : 0,
					"patching_rect" : [ 168.0, 2170.0, 60.0, 21.0 ],
					"text" : "left right"
				}

			}
, 			{
				"box" : 				{
					"fontname" : "Arial",
					"fontsize" : 13.0,
					"id" : "obj-40",
					"maxclass" : "comment",
					"numinlets" : 1,
					"numoutlets" : 0,
					"patching_rect" : [ 111.0, 2033.0, 39.0, 21.0 ],
					"text" : "Gain"
				}

			}
, 			{
				"box" : 				{
					"candicane2" : [ 0.145098, 0.203922, 0.356863, 1.0 ],
					"candicane3" : [ 0.290196, 0.411765, 0.713726, 1.0 ],
					"candicane4" : [ 0.439216, 0.619608, 0.070588, 1.0 ],
					"candicane5" : [ 0.584314, 0.827451, 0.431373, 1.0 ],
					"candicane6" : [ 0.733333, 0.035294, 0.788235, 1.0 ],
					"candicane7" : [ 0.878431, 0.243137, 0.145098, 1.0 ],
					"candicane8" : [ 0.027451, 0.447059, 0.501961, 1.0 ],
					"candycane" : 2,
					"id" : "obj-41",
					"maxclass" : "multislider",
					"numinlets" : 1,
					"numoutlets" : 2,
					"outlettype" : [ "", "" ],
					"parameter_enable" : 0,
					"patching_rect" : [ 97.0, 2076.0, 47.0, 94.0 ],
					"peakcolor" : [ 0.498039, 0.498039, 0.498039, 1.0 ],
					"setminmax" : [ 0.0, 250.0 ],
					"setstyle" : 1,
					"settype" : 0,
					"size" : 2,
					"spacing" : 1
				}

			}
, 			{
				"box" : 				{
					"fontname" : "Arial",
					"fontsize" : 13.0,
					"id" : "obj-42",
					"maxclass" : "comment",
					"numinlets" : 1,
					"numoutlets" : 0,
					"patching_rect" : [ 85.0, 2170.0, 81.0, 21.0 ],
					"text" : "bass overall"
				}

			}
, 			{
				"box" : 				{
					"fontname" : "Arial",
					"fontsize" : 13.0,
					"id" : "obj-75",
					"maxclass" : "newobj",
					"numinlets" : 0,
					"numoutlets" : 1,
					"outlettype" : [ "" ],
					"patching_rect" : [ 97.0, 1967.0, 125.0, 23.0 ],
					"text" : "r from-comp-meters"
				}

			}
, 			{
				"box" : 				{
					"fontname" : "Arial",
					"fontsize" : 13.0,
					"id" : "obj-76",
					"maxclass" : "newobj",
					"numinlets" : 2,
					"numoutlets" : 1,
					"outlettype" : [ "bang" ],
					"patching_rect" : [ 97.0, 1777.0, 46.0, 23.0 ],
					"text" : "del 20"
				}

			}
, 			{
				"box" : 				{
					"fontname" : "Arial",
					"fontsize" : 13.0,
					"id" : "obj-77",
					"maxclass" : "newobj",
					"numinlets" : 1,
					"numoutlets" : 0,
					"patching_rect" : [ 97.0, 1920.0, 68.0, 23.0 ],
					"text" : "s to-comp"
				}

			}
, 			{
				"box" : 				{
					"fontname" : "Arial",
					"fontsize" : 13.0,
					"id" : "obj-78",
					"maxclass" : "comment",
					"numinlets" : 1,
					"numoutlets" : 0,
					"patching_rect" : [ 116.0, 1839.0, 45.0, 21.0 ],
					"text" : "on/off"
				}

			}
, 			{
				"box" : 				{
					"fontname" : "Arial",
					"fontsize" : 13.0,
					"id" : "obj-79",
					"maxclass" : "comment",
					"numinlets" : 1,
					"numoutlets" : 0,
					"patching_rect" : [ 232.0, 1839.0, 32.0, 21.0 ],
					"text" : "ms."
				}

			}
, 			{
				"box" : 				{
					"fontname" : "Arial",
					"fontsize" : 13.0,
					"id" : "obj-80",
					"maxclass" : "message",
					"numinlets" : 2,
					"numoutlets" : 1,
					"outlettype" : [ "" ],
					"patching_rect" : [ 97.0, 1806.0, 36.0, 23.0 ],
					"text" : "1"
				}

			}
, 			{
				"box" : 				{
					"fontname" : "Arial",
					"fontsize" : 13.0,
					"id" : "obj-57",
					"maxclass" : "number",
					"numinlets" : 1,
					"numoutlets" : 2,
					"outlettype" : [ "", "bang" ],
					"parameter_enable" : 0,
					"patching_rect" : [ 178.0, 1839.0, 54.0, 23.0 ]
				}

			}
, 			{
				"box" : 				{
					"id" : "obj-58",
					"maxclass" : "toggle",
					"numinlets" : 1,
					"numoutlets" : 1,
					"outlettype" : [ "int" ],
					"parameter_enable" : 0,
					"patching_rect" : [ 97.0, 1839.0, 20.0, 20.0 ]
				}

			}
, 			{
				"box" : 				{
					"fontname" : "Arial",
					"fontsize" : 13.0,
					"id" : "obj-59",
					"maxclass" : "message",
					"numinlets" : 2,
					"numoutlets" : 1,
					"outlettype" : [ "" ],
					"patching_rect" : [ 178.0, 1806.0, 37.0, 23.0 ],
					"text" : "25"
				}

			}
, 			{
				"box" : 				{
					"fontname" : "Arial",
					"fontsize" : 13.0,
					"id" : "obj-60",
					"maxclass" : "newobj",
					"numinlets" : 1,
					"numoutlets" : 1,
					"outlettype" : [ "bang" ],
					"patching_rect" : [ 97.0, 1749.0, 65.0, 23.0 ],
					"text" : "loadbang"
				}

			}
, 			{
				"box" : 				{
					"fontname" : "Arial",
					"fontsize" : 13.0,
					"id" : "obj-81",
					"maxclass" : "message",
					"numinlets" : 2,
					"numoutlets" : 1,
					"outlettype" : [ "" ],
					"patching_rect" : [ 178.0, 1871.0, 90.0, 23.0 ],
					"text" : "meterRate $1"
				}

			}
, 			{
				"box" : 				{
					"fontname" : "Arial",
					"fontsize" : 13.0,
					"id" : "obj-82",
					"maxclass" : "message",
					"numinlets" : 2,
					"numoutlets" : 1,
					"outlettype" : [ "" ],
					"patching_rect" : [ 97.0, 1871.0, 69.0, 23.0 ],
					"text" : "meters $1"
				}

			}
, 			{
				"box" : 				{
					"fontname" : "Arial",
					"fontsize" : 13.0,
					"id" : "obj-83",
					"maxclass" : "newobj",
					"numinlets" : 0,
					"numoutlets" : 1,
					"outlettype" : [ "" ],
					"patching_rect" : [ 282.000000000000114, 1161.5, 65.0, 23.0 ],
					"text" : "r to-comp"
				}

			}
, 			{
				"box" : 				{
					"fontname" : "Arial",
					"fontsize" : 13.0,
					"id" : "obj-85",
					"maxclass" : "newobj",
					"numinlets" : 1,
					"numoutlets" : 0,
					"patching_rect" : [ 260.000000000000114, 1270.5, 127.0, 23.0 ],
					"text" : "s from-comp-meters"
				}

			}
, 			{
				"box" : 				{
					"fontname" : "Arial",
					"fontsize" : 13.0,
					"id" : "obj-86",
					"maxclass" : "newobj",
					"numinlets" : 1,
					"numoutlets" : 0,
					"patching_rect" : [ 238.000000000000114, 1299.5, 130.0, 23.0 ],
					"text" : "s from-comp-params"
				}

			}
, 			{
				"box" : 				{
					"id" : "obj-89",
					"maxclass" : "toggle",
					"numinlets" : 1,
					"numoutlets" : 1,
					"outlettype" : [ "int" ],
					"parameter_enable" : 0,
					"patching_rect" : [ 42.5, 1081.0, 20.0, 20.0 ]
				}

			}
, 			{
				"box" : 				{
					"fontface" : 0,
					"fontname" : "Arial",
					"fontsize" : 11.595186999999999,
					"id" : "obj-91",
					"items" : [ "Guitar", ",", "Bass", ",", "Vocal", ",", "Drums", ",", "Program", "Material" ],
					"maxclass" : "umenu",
					"numinlets" : 1,
					"numoutlets" : 3,
					"outlettype" : [ "int", "", "" ],
					"parameter_enable" : 0,
					"patching_rect" : [ 238.000000000000114, 1109.0, 111.0, 21.0 ]
				}

			}
, 			{
				"box" : 				{
					"fontname" : "Arial",
					"fontsize" : 13.0,
					"id" : "obj-92",
					"maxclass" : "message",
					"numinlets" : 2,
					"numoutlets" : 1,
					"outlettype" : [ "" ],
					"patching_rect" : [ 238.000000000000114, 1135.0, 109.0, 23.0 ],
					"text" : "choosePreset $1"
				}

			}
, 			{
				"box" : 				{
					"fontname" : "Arial",
					"fontsize" : 13.0,
					"id" : "obj-44",
					"maxclass" : "message",
					"numinlets" : 2,
					"numoutlets" : 1,
					"outlettype" : [ "" ],
					"patching_rect" : [ 42.5, 1107.0, 71.0, 23.0 ],
					"text" : "bypass $1"
				}

			}
, 			{
				"box" : 				{
					"fontname" : "Arial",
					"fontsize" : 13.0,
					"id" : "obj-93",
					"maxclass" : "newobj",
					"numinlets" : 2,
					"numoutlets" : 4,
					"outlettype" : [ "signal", "signal", "list", "list" ],
					"patching_rect" : [ 124.666687000000138, 1223.5, 78.0, 23.0 ],
					"text" : "omx.comp~"
				}

			}
, 			{
				"box" : 				{
					"bgcolor" : [ 0.407843, 0.407843, 0.407843, 1.0 ],
					"coldcolor" : [ 0.0, 0.658824, 0.0, 1.0 ],
					"id" : "obj-95",
					"interval" : 100,
					"maxclass" : "meter~",
					"numinlets" : 1,
					"numoutlets" : 1,
					"outlettype" : [ "float" ],
					"patching_rect" : [ 124.666687000000138, 1291.0, 19.0, 66.0 ],
					"tepidcolor" : [ 0.6, 0.729412, 0.0, 1.0 ],
					"warmcolor" : [ 0.85098, 0.85098, 0.0, 1.0 ]
				}

			}
, 			{
				"box" : 				{
					"id" : "obj-23",
					"maxclass" : "preset",
					"numinlets" : 1,
					"numoutlets" : 5,
					"outlettype" : [ "preset", "int", "preset", "int", "" ],
					"patching_rect" : [ 1288.0, 63.5, 52.0, 41.0 ],
					"preset_data" : [ 						{
							"number" : 1,
							"data" : [ 6, "obj-11", "pictslider", "list", 63, 63, 5, "<invalid>", "flonum", "float", 0.360000014305115, 5, "<invalid>", "flonum", "float", 0.150000005960464, 5, "<invalid>", "flonum", "float", 0.14300000667572, 5, "<invalid>", "flonum", "float", 85.0, 5, "<invalid>", "flonum", "float", 0.419999986886978, 5, "<invalid>", "flonum", "float", 101.0, 5, "<invalid>", "flonum", "float", 10000.0, 5, "obj-91", "umenu", "int", 2, 5, "obj-89", "toggle", "int", 0, 5, "obj-58", "toggle", "int", 1, 5, "obj-57", "number", "int", 25, 6, "obj-41", "multislider", "list", 220, 220, 6, "obj-73", "multislider", "list", 7, 0, 6, "obj-72", "multislider", "list", 250, 250, 5, "<invalid>", "live.gain~", "float", -10.736910820007324, 5, "obj-131", "slider", "float", 63.0, 5, "<invalid>", "flonum", "float", -4.411351680755615, 5, "obj-167", "flonum", "float", 0.918170809745789, 5, "obj-179", "slider", "float", 63.0, 5, "<invalid>", "slider", "float", 127.0, 6, "<invalid>", "pictslider", "list", 61, 62, 5, "obj-221", "flonum", "float", 2000.0, 5, "obj-223", "flonum", "float", 0.0, 5, "obj-225", "flonum", "float", 3000.0, 5, "<invalid>", "flonum", "float", 0.349999994039536, 5, "<invalid>", "flonum", "float", 0.150000005960464, 5, "<invalid>", "flonum", "float", 0.100000001490116, 5, "<invalid>", "flonum", "float", 85.0, 5, "<invalid>", "flonum", "float", 0.419999986886978, 5, "<invalid>", "flonum", "float", 10.0, 5, "<invalid>", "flonum", "float", 1000.0, 5, "obj-29", "umenu", "int", 0, 5, "obj-27", "toggle", "int", 0, 5, "<invalid>", "flonum", "float", 0.5, 5, "<invalid>", "flonum", "float", 0.150000005960464, 5, "<invalid>", "flonum", "float", 0.100000001490116, 5, "<invalid>", "flonum", "float", 85.0, 5, "<invalid>", "flonum", "float", 0.419999986886978, 5, "<invalid>", "flonum", "float", 90.0, 5, "<invalid>", "flonum", "float", 10000.0, 5, "<invalid>", "umenu", "int", 0, 5, "<invalid>", "toggle", "int", 0, 5, "<invalid>", "slider", "float", 4.0, 5, "<invalid>", "slider", "float", 66.0, 5, "<invalid>", "slider", "float", 116.0, 5, "<invalid>", "live.gain~", "float", -7.446546077728271, 5, "<invalid>", "live.gain~", "float", -10.930270195007324, 5, "<invalid>", "live.gain~", "float", -3.116649150848389, 5, "obj-25", "flonum", "float", 1000.0, 5, "obj-111", "flonum", "float", 1000.0, 5, "<invalid>", "flonum", "float", 0.523898720741272, 5, "obj-178", "slider", "float", 63.0 ]
						}
, 						{
							"number" : 2,
							"data" : [ 6, "obj-11", "pictslider", "list", 71, 62, 5, "<invalid>", "flonum", "float", 0.360000014305115, 5, "<invalid>", "flonum", "float", 0.150000005960464, 5, "<invalid>", "flonum", "float", 0.14300000667572, 5, "<invalid>", "flonum", "float", 85.0, 5, "<invalid>", "flonum", "float", 0.419999986886978, 5, "<invalid>", "flonum", "float", 101.0, 5, "<invalid>", "flonum", "float", 10000.0, 5, "obj-91", "umenu", "int", 2, 5, "obj-89", "toggle", "int", 0, 5, "obj-58", "toggle", "int", 1, 5, "obj-57", "number", "int", 25, 6, "obj-41", "multislider", "list", 250, 250, 6, "obj-73", "multislider", "list", 250, 0, 6, "obj-72", "multislider", "list", 250, 250, 5, "<invalid>", "live.gain~", "float", -14.838054656982422, 5, "obj-131", "slider", "float", 71.0, 5, "<invalid>", "slider", "float", 55.0, 5, "<invalid>", "slider", "float", 30.0, 5, "<invalid>", "flonum", "float", -0.879863977432251, 5, "obj-167", "flonum", "float", 0.918170809745789, 5, "obj-179", "slider", "float", 63.0, 5, "<invalid>", "slider", "float", 64.0, 6, "<invalid>", "pictslider", "list", 63, 63, 5, "obj-221", "flonum", "float", 2000.0, 5, "obj-223", "flonum", "float", 0.0, 5, "obj-225", "flonum", "float", 3000.0, 6, "<invalid>", "number~", "list", -3.5, 0.0 ]
						}
, 						{
							"number" : 3,
							"data" : [ 6, "obj-11", "pictslider", "list", 24, 15, 5, "<invalid>", "flonum", "float", 0.360000014305115, 5, "<invalid>", "flonum", "float", 0.310000002384186, 5, "<invalid>", "flonum", "float", 0.14300000667572, 5, "<invalid>", "flonum", "float", 85.0, 5, "<invalid>", "flonum", "float", 0.860000014305115, 5, "<invalid>", "flonum", "float", 101.0, 5, "<invalid>", "flonum", "float", 10000.0, 5, "obj-91", "umenu", "int", 2, 5, "obj-89", "toggle", "int", 0, 5, "obj-58", "toggle", "int", 1, 5, "obj-57", "number", "int", 25, 6, "obj-41", "multislider", "list", 202, 202, 6, "obj-73", "multislider", "list", 250, 0, 6, "obj-72", "multislider", "list", 250, 250, 5, "<invalid>", "live.gain~", "float", -14.838054656982422, 5, "obj-131", "slider", "float", 71.0, 5, "<invalid>", "flonum", "float", 0.911418378353119, 5, "obj-167", "flonum", "float", -4.459708690643311, 5, "obj-179", "slider", "float", 56.0, 5, "<invalid>", "slider", "float", 120.0, 6, "<invalid>", "pictslider", "list", 98, 50, 5, "obj-221", "flonum", "float", 2000.0, 5, "obj-223", "flonum", "float", 0.0, 5, "obj-225", "flonum", "float", 3000.0, 5, "<invalid>", "flonum", "float", 0.360000014305115, 5, "<invalid>", "flonum", "float", 0.150000005960464, 5, "<invalid>", "flonum", "float", 0.14300000667572, 5, "<invalid>", "flonum", "float", 85.0, 5, "<invalid>", "flonum", "float", 0.419999986886978, 5, "<invalid>", "flonum", "float", 101.0, 5, "<invalid>", "flonum", "float", 10000.0, 5, "obj-29", "umenu", "int", 2, 5, "obj-27", "toggle", "int", 0, 5, "<invalid>", "flonum", "float", 0.360000014305115, 5, "<invalid>", "flonum", "float", 0.150000005960464, 5, "<invalid>", "flonum", "float", 0.14300000667572, 5, "<invalid>", "flonum", "float", 85.0, 5, "<invalid>", "flonum", "float", 0.419999986886978, 5, "<invalid>", "flonum", "float", 101.0, 5, "<invalid>", "flonum", "float", 10000.0, 5, "<invalid>", "umenu", "int", 2, 5, "<invalid>", "toggle", "int", 0, 5, "<invalid>", "slider", "float", 0.0, 5, "<invalid>", "slider", "float", 63.0, 5, "<invalid>", "slider", "float", 127.0 ]
						}
, 						{
							"number" : 4,
							"data" : [ 5, "<invalid>", "toggle", "int", 1, 5, "<invalid>", "umenu", "int", 28, 5, "obj-11", "flonum", "float", 0.96, 5, "<invalid>", "flonum", "float", 0.7, 5, "<invalid>", "flonum", "float", 0.989846, 5, "<invalid>", "flonum", "float", 23.0, 5, "<invalid>", "flonum", "float", 0.05, 5, "obj-23", "flonum", "float", 0.12, 5, "obj-18", "flonum", "float", 50.0, 5, "obj-12", "flonum", "float", 15000.0 ]
						}
, 						{
							"number" : 5,
							"data" : [ 5, "<invalid>", "toggle", "int", 1, 5, "<invalid>", "umenu", "int", 25, 5, "obj-11", "flonum", "float", 0.600000023841858, 5, "<invalid>", "flonum", "float", 0.187999993562698, 5, "<invalid>", "flonum", "float", 0.880111992359161, 5, "<invalid>", "flonum", "float", 23.0, 5, "<invalid>", "flonum", "float", 0.600000023841858, 5, "obj-23", "flonum", "float", 0.360000014305115, 5, "obj-18", "flonum", "float", 183.0, 5, "obj-12", "flonum", "float", 20000.0 ]
						}
, 						{
							"number" : 6,
							"data" : [ 5, "<invalid>", "toggle", "int", 1, 5, "<invalid>", "umenu", "int", 25, 5, "obj-11", "flonum", "float", 0.1, 5, "<invalid>", "flonum", "float", 0.96, 5, "<invalid>", "flonum", "float", 0.562341, 5, "<invalid>", "flonum", "float", 23.0, 5, "<invalid>", "flonum", "float", 0.7, 5, "obj-23", "flonum", "float", 0.2, 5, "obj-18", "flonum", "float", 140.0, 5, "obj-12", "flonum", "float", 15000.0 ]
						}
, 						{
							"number" : 7,
							"data" : [ 5, "<invalid>", "toggle", "int", 1, 5, "<invalid>", "umenu", "int", 25, 5, "obj-11", "flonum", "float", 0.699, 5, "<invalid>", "flonum", "float", 0.48, 5, "<invalid>", "flonum", "float", 0.914364, 5, "<invalid>", "flonum", "float", 6.0, 5, "<invalid>", "flonum", "float", 0.9, 5, "obj-23", "flonum", "float", 0.8, 5, "obj-18", "flonum", "float", 698.0, 5, "obj-12", "flonum", "float", 1880.0 ]
						}
, 						{
							"number" : 8,
							"data" : [ 5, "<invalid>", "toggle", "int", 1, 5, "<invalid>", "umenu", "int", 25, 5, "obj-11", "flonum", "float", 0.99, 5, "<invalid>", "flonum", "float", 0.09, 5, "<invalid>", "flonum", "float", 0.997491, 5, "<invalid>", "flonum", "float", 23.0, 5, "<invalid>", "flonum", "float", 0.1, 5, "obj-23", "flonum", "float", 0.36, 5, "obj-18", "flonum", "float", 140.0, 5, "obj-12", "flonum", "float", 15000.0 ]
						}
, 						{
							"number" : 9,
							"data" : [ 5, "<invalid>", "toggle", "int", 1, 5, "<invalid>", "umenu", "int", 8, 5, "obj-11", "flonum", "float", 0.639999985694885, 5, "<invalid>", "flonum", "float", 0.689999997615814, 5, "<invalid>", "flonum", "float", 0.894427001476288, 5, "<invalid>", "flonum", "float", 23.0, 5, "<invalid>", "flonum", "float", 0.25, 5, "obj-23", "flonum", "float", 0.694999992847443, 5, "obj-18", "flonum", "float", 50.0, 5, "obj-12", "flonum", "float", 10000.0 ]
						}
, 						{
							"number" : 10,
							"data" : [ 5, "<invalid>", "toggle", "int", 1, 5, "<invalid>", "umenu", "int", 8, 5, "obj-11", "flonum", "float", 0.991999983787537, 5, "<invalid>", "flonum", "float", 0.200000002980232, 5, "<invalid>", "flonum", "float", 0.997994005680084, 5, "<invalid>", "flonum", "float", 30.0, 5, "<invalid>", "flonum", "float", 0.100000001490116, 5, "obj-23", "flonum", "float", 0.360000014305115, 5, "obj-18", "flonum", "float", 880.0, 5, "obj-12", "flonum", "float", 2000.0 ]
						}
, 						{
							"number" : 11,
							"data" : [ 5, "<invalid>", "toggle", "int", 1, 5, "<invalid>", "umenu", "int", 8, 5, "obj-11", "flonum", "float", 0.901, 5, "<invalid>", "flonum", "float", 0.96, 5, "<invalid>", "flonum", "float", 0.974274, 5, "<invalid>", "flonum", "float", 10.0, 5, "<invalid>", "flonum", "float", 0.6, 5, "obj-23", "flonum", "float", 0.0, 5, "obj-18", "flonum", "float", 50.0, 5, "obj-12", "flonum", "float", 2000.0 ]
						}
, 						{
							"number" : 12,
							"data" : [ 5, "<invalid>", "toggle", "int", 1, 5, "<invalid>", "umenu", "int", 8, 5, "obj-11", "flonum", "float", 0.9, 5, "<invalid>", "flonum", "float", 0.2, 5, "<invalid>", "flonum", "float", 0.974004, 5, "<invalid>", "flonum", "float", 17.0, 5, "<invalid>", "flonum", "float", 0.1, 5, "obj-23", "flonum", "float", 0.7, 5, "obj-18", "flonum", "float", 50.0, 5, "obj-12", "flonum", "float", 1000.0 ]
						}
 ]
				}

			}
, 			{
				"box" : 				{
					"id" : "obj-12",
					"maxclass" : "newobj",
					"numinlets" : 1,
					"numoutlets" : 1,
					"outlettype" : [ "signal" ],
					"patching_rect" : [ 1177.0, 516.0, 41.0, 22.0 ],
					"text" : "sig~"
				}

			}
, 			{
				"box" : 				{
					"id" : "obj-14",
					"maxclass" : "newobj",
					"numinlets" : 6,
					"numoutlets" : 1,
					"outlettype" : [ "" ],
					"patching_rect" : [ 1177.0, 478.0, 107.0, 22.0 ],
					"text" : "scale 0. 127. -5. 5."
				}

			}
, 			{
				"box" : 				{
					"id" : "obj-17",
					"maxclass" : "newobj",
					"numinlets" : 6,
					"numoutlets" : 1,
					"outlettype" : [ "" ],
					"patching_rect" : [ 1049.0, 478.0, 107.0, 22.0 ],
					"text" : "scale 0. 127. -5. 5."
				}

			}
, 			{
				"box" : 				{
					"id" : "obj-18",
					"maxclass" : "pictslider",
					"numinlets" : 2,
					"numoutlets" : 2,
					"outlettype" : [ "int", "int" ],
					"parameter_enable" : 0,
					"patching_rect" : [ 1087.0, 276.5, 147.0, 125.0 ]
				}

			}
, 			{
				"box" : 				{
					"id" : "obj-19",
					"maxclass" : "newobj",
					"numinlets" : 1,
					"numoutlets" : 1,
					"outlettype" : [ "signal" ],
					"patching_rect" : [ 1049.0, 516.0, 41.0, 22.0 ],
					"text" : "sig~"
				}

			}
, 			{
				"box" : 				{
					"id" : "obj-5",
					"maxclass" : "newobj",
					"numinlets" : 1,
					"numoutlets" : 1,
					"outlettype" : [ "signal" ],
					"patching_rect" : [ 633.0, 469.0, 41.0, 22.0 ],
					"text" : "sig~"
				}

			}
, 			{
				"box" : 				{
					"id" : "obj-7",
					"maxclass" : "newobj",
					"numinlets" : 6,
					"numoutlets" : 1,
					"outlettype" : [ "" ],
					"patching_rect" : [ 633.0, 439.0, 107.0, 22.0 ],
					"text" : "scale 0. 127. -3. 3."
				}

			}
, 			{
				"box" : 				{
					"id" : "obj-8",
					"maxclass" : "newobj",
					"numinlets" : 6,
					"numoutlets" : 1,
					"outlettype" : [ "" ],
					"patching_rect" : [ 505.0, 439.0, 107.0, 22.0 ],
					"text" : "scale 0. 127. -3. 3."
				}

			}
, 			{
				"box" : 				{
					"id" : "obj-9",
					"maxclass" : "pictslider",
					"numinlets" : 2,
					"numoutlets" : 2,
					"outlettype" : [ "int", "int" ],
					"parameter_enable" : 0,
					"patching_rect" : [ 496.0, 269.0, 147.0, 125.0 ]
				}

			}
, 			{
				"box" : 				{
					"id" : "obj-10",
					"maxclass" : "newobj",
					"numinlets" : 1,
					"numoutlets" : 1,
					"outlettype" : [ "signal" ],
					"patching_rect" : [ 505.0, 468.0, 41.0, 22.0 ],
					"text" : "sig~"
				}

			}
, 			{
				"box" : 				{
					"id" : "obj-16",
					"maxclass" : "newobj",
					"numinlets" : 1,
					"numoutlets" : 1,
					"outlettype" : [ "signal" ],
					"patching_rect" : [ 104.5, 465.0, 41.0, 22.0 ],
					"text" : "sig~"
				}

			}
, 			{
				"box" : 				{
					"id" : "obj-15",
					"maxclass" : "newobj",
					"numinlets" : 6,
					"numoutlets" : 1,
					"outlettype" : [ "" ],
					"patching_rect" : [ 104.5, 425.0, 107.0, 22.0 ],
					"text" : "scale 0. 127. -3. 3."
				}

			}
, 			{
				"box" : 				{
					"id" : "obj-13",
					"maxclass" : "newobj",
					"numinlets" : 6,
					"numoutlets" : 1,
					"outlettype" : [ "" ],
					"patching_rect" : [ -4.5, 425.0, 107.0, 22.0 ],
					"text" : "scale 0. 127. -3. 3."
				}

			}
, 			{
				"box" : 				{
					"id" : "obj-11",
					"maxclass" : "pictslider",
					"numinlets" : 2,
					"numoutlets" : 2,
					"outlettype" : [ "int", "int" ],
					"parameter_enable" : 0,
					"patching_rect" : [ 11.5, 238.0, 147.0, 125.0 ]
				}

			}
, 			{
				"box" : 				{
					"id" : "obj-6",
					"maxclass" : "newobj",
					"numinlets" : 1,
					"numoutlets" : 1,
					"outlettype" : [ "signal" ],
					"patching_rect" : [ -4.5, 460.0, 41.0, 22.0 ],
					"text" : "sig~"
				}

			}
 ],
		"lines" : [ 			{
				"patchline" : 				{
					"destination" : [ "obj-196", 0 ],
					"source" : [ "obj-1", 0 ]
				}

			}
, 			{
				"patchline" : 				{
					"destination" : [ "obj-125", 0 ],
					"order" : 1,
					"source" : [ "obj-10", 0 ]
				}

			}
, 			{
				"patchline" : 				{
					"destination" : [ "obj-210", 0 ],
					"order" : 0,
					"source" : [ "obj-10", 0 ]
				}

			}
, 			{
				"patchline" : 				{
					"destination" : [ "obj-107", 0 ],
					"source" : [ "obj-100", 0 ]
				}

			}
, 			{
				"patchline" : 				{
					"destination" : [ "obj-122", 0 ],
					"order" : 1,
					"source" : [ "obj-107", 0 ]
				}

			}
, 			{
				"patchline" : 				{
					"destination" : [ "obj-88", 0 ],
					"order" : 0,
					"source" : [ "obj-107", 0 ]
				}

			}
, 			{
				"patchline" : 				{
					"destination" : [ "obj-13", 0 ],
					"midpoints" : [ 21.0, 418.0, 5.0, 418.0 ],
					"source" : [ "obj-11", 0 ]
				}

			}
, 			{
				"patchline" : 				{
					"destination" : [ "obj-15", 0 ],
					"midpoints" : [ 149.0, 388.0, 114.0, 388.0 ],
					"source" : [ "obj-11", 1 ]
				}

			}
, 			{
				"patchline" : 				{
					"destination" : [ "obj-107", 5 ],
					"source" : [ "obj-110", 0 ]
				}

			}
, 			{
				"patchline" : 				{
					"destination" : [ "obj-184", 2 ],
					"order" : 0,
					"source" : [ "obj-111", 0 ]
				}

			}
, 			{
				"patchline" : 				{
					"destination" : [ "obj-230", 2 ],
					"order" : 1,
					"source" : [ "obj-111", 0 ]
				}

			}
, 			{
				"patchline" : 				{
					"destination" : [ "obj-230", 0 ],
					"order" : 2,
					"source" : [ "obj-111", 0 ]
				}

			}
, 			{
				"patchline" : 				{
					"destination" : [ "obj-20", 0 ],
					"source" : [ "obj-116", 0 ]
				}

			}
, 			{
				"patchline" : 				{
					"destination" : [ "obj-116", 1 ],
					"order" : 1,
					"source" : [ "obj-119", 0 ]
				}

			}
, 			{
				"patchline" : 				{
					"destination" : [ "obj-134", 0 ],
					"order" : 0,
					"source" : [ "obj-119", 0 ]
				}

			}
, 			{
				"patchline" : 				{
					"destination" : [ "obj-215", 0 ],
					"order" : 1,
					"source" : [ "obj-12", 0 ]
				}

			}
, 			{
				"patchline" : 				{
					"destination" : [ "obj-218", 0 ],
					"order" : 0,
					"source" : [ "obj-12", 0 ]
				}

			}
, 			{
				"patchline" : 				{
					"destination" : [ "obj-119", 0 ],
					"source" : [ "obj-121", 0 ]
				}

			}
, 			{
				"patchline" : 				{
					"destination" : [ "obj-123", 0 ],
					"source" : [ "obj-122", 0 ]
				}

			}
, 			{
				"patchline" : 				{
					"destination" : [ "obj-124", 1 ],
					"order" : 1,
					"source" : [ "obj-123", 0 ]
				}

			}
, 			{
				"patchline" : 				{
					"destination" : [ "obj-133", 0 ],
					"order" : 0,
					"source" : [ "obj-123", 0 ]
				}

			}
, 			{
				"patchline" : 				{
					"destination" : [ "obj-20", 0 ],
					"order" : 0,
					"source" : [ "obj-124", 0 ]
				}

			}
, 			{
				"patchline" : 				{
					"destination" : [ "obj-36", 0 ],
					"order" : 1,
					"source" : [ "obj-124", 0 ]
				}

			}
, 			{
				"patchline" : 				{
					"destination" : [ "obj-1", 2 ],
					"source" : [ "obj-125", 0 ]
				}

			}
, 			{
				"patchline" : 				{
					"destination" : [ "obj-216", 0 ],
					"order" : 1,
					"source" : [ "obj-128", 0 ]
				}

			}
, 			{
				"patchline" : 				{
					"destination" : [ "obj-219", 0 ],
					"order" : 0,
					"source" : [ "obj-128", 0 ]
				}

			}
, 			{
				"patchline" : 				{
					"destination" : [ "obj-128", 0 ],
					"midpoints" : [ 1343.5, 515.0, 1343.5, 515.0 ],
					"source" : [ "obj-129", 0 ]
				}

			}
, 			{
				"patchline" : 				{
					"destination" : [ "obj-153", 0 ],
					"order" : 0,
					"source" : [ "obj-13", 0 ]
				}

			}
, 			{
				"patchline" : 				{
					"destination" : [ "obj-6", 0 ],
					"midpoints" : [ 5.0, 459.0, 5.0, 459.0 ],
					"order" : 1,
					"source" : [ "obj-13", 0 ]
				}

			}
, 			{
				"patchline" : 				{
					"destination" : [ "obj-1", 5 ],
					"source" : [ "obj-130", 0 ]
				}

			}
, 			{
				"patchline" : 				{
					"destination" : [ "obj-129", 0 ],
					"source" : [ "obj-131", 0 ]
				}

			}
, 			{
				"patchline" : 				{
					"destination" : [ "obj-12", 0 ],
					"midpoints" : [ 1186.5, 509.0, 1186.5, 509.0 ],
					"source" : [ "obj-14", 0 ]
				}

			}
, 			{
				"patchline" : 				{
					"destination" : [ "obj-124", 0 ],
					"source" : [ "obj-141", 1 ]
				}

			}
, 			{
				"patchline" : 				{
					"destination" : [ "obj-124", 0 ],
					"source" : [ "obj-141", 0 ]
				}

			}
, 			{
				"patchline" : 				{
					"destination" : [ "obj-141", 1 ],
					"source" : [ "obj-145", 0 ]
				}

			}
, 			{
				"patchline" : 				{
					"destination" : [ "obj-155", 0 ],
					"source" : [ "obj-147", 0 ]
				}

			}
, 			{
				"patchline" : 				{
					"destination" : [ "obj-292", 0 ],
					"source" : [ "obj-149", 0 ]
				}

			}
, 			{
				"patchline" : 				{
					"destination" : [ "obj-153", 1 ],
					"order" : 0,
					"source" : [ "obj-15", 0 ]
				}

			}
, 			{
				"patchline" : 				{
					"destination" : [ "obj-16", 0 ],
					"midpoints" : [ 114.0, 432.0, 114.0, 432.0 ],
					"order" : 1,
					"source" : [ "obj-15", 0 ]
				}

			}
, 			{
				"patchline" : 				{
					"destination" : [ "obj-141", 2 ],
					"source" : [ "obj-150", 0 ]
				}

			}
, 			{
				"patchline" : 				{
					"destination" : [ "obj-149", 0 ],
					"source" : [ "obj-151", 0 ]
				}

			}
, 			{
				"patchline" : 				{
					"destination" : [ "obj-151", 0 ],
					"source" : [ "obj-153", 0 ]
				}

			}
, 			{
				"patchline" : 				{
					"destination" : [ "obj-99", 0 ],
					"source" : [ "obj-154", 0 ]
				}

			}
, 			{
				"patchline" : 				{
					"destination" : [ "obj-49", 0 ],
					"order" : 0,
					"source" : [ "obj-155", 0 ]
				}

			}
, 			{
				"patchline" : 				{
					"destination" : [ "obj-61", 0 ],
					"order" : 1,
					"source" : [ "obj-155", 0 ]
				}

			}
, 			{
				"patchline" : 				{
					"destination" : [ "obj-141", 3 ],
					"source" : [ "obj-156", 0 ]
				}

			}
, 			{
				"patchline" : 				{
					"destination" : [ "obj-141", 4 ],
					"source" : [ "obj-158", 0 ]
				}

			}
, 			{
				"patchline" : 				{
					"destination" : [ "obj-147", 0 ],
					"source" : [ "obj-159", 0 ]
				}

			}
, 			{
				"patchline" : 				{
					"destination" : [ "obj-230", 0 ],
					"source" : [ "obj-16", 0 ]
				}

			}
, 			{
				"patchline" : 				{
					"destination" : [ "obj-98", 1 ],
					"source" : [ "obj-162", 0 ]
				}

			}
, 			{
				"patchline" : 				{
					"destination" : [ "obj-18", 0 ],
					"source" : [ "obj-163", 0 ]
				}

			}
, 			{
				"patchline" : 				{
					"destination" : [ "obj-172", 0 ],
					"source" : [ "obj-164", 0 ]
				}

			}
, 			{
				"patchline" : 				{
					"destination" : [ "obj-167", 0 ],
					"source" : [ "obj-165", 0 ]
				}

			}
, 			{
				"patchline" : 				{
					"destination" : [ "obj-165", 0 ],
					"source" : [ "obj-166", 0 ]
				}

			}
, 			{
				"patchline" : 				{
					"destination" : [ "obj-164", 0 ],
					"order" : 1,
					"source" : [ "obj-167", 0 ]
				}

			}
, 			{
				"patchline" : 				{
					"destination" : [ "obj-287", 0 ],
					"order" : 0,
					"source" : [ "obj-167", 0 ]
				}

			}
, 			{
				"patchline" : 				{
					"destination" : [ "obj-166", 0 ],
					"source" : [ "obj-168", 0 ]
				}

			}
, 			{
				"patchline" : 				{
					"destination" : [ "obj-18", 1 ],
					"source" : [ "obj-169", 0 ]
				}

			}
, 			{
				"patchline" : 				{
					"destination" : [ "obj-19", 0 ],
					"midpoints" : [ 1058.5, 463.0, 1058.5, 463.0 ],
					"source" : [ "obj-17", 0 ]
				}

			}
, 			{
				"patchline" : 				{
					"destination" : [ "obj-168", 0 ],
					"order" : 1,
					"source" : [ "obj-170", 0 ]
				}

			}
, 			{
				"patchline" : 				{
					"destination" : [ "obj-171", 0 ],
					"order" : 0,
					"source" : [ "obj-170", 0 ]
				}

			}
, 			{
				"patchline" : 				{
					"destination" : [ "obj-1", 7 ],
					"order" : 2,
					"source" : [ "obj-171", 0 ]
				}

			}
, 			{
				"patchline" : 				{
					"destination" : [ "obj-207", 0 ],
					"order" : 0,
					"source" : [ "obj-171", 0 ]
				}

			}
, 			{
				"patchline" : 				{
					"destination" : [ "obj-212", 0 ],
					"order" : 1,
					"source" : [ "obj-171", 0 ]
				}

			}
, 			{
				"patchline" : 				{
					"destination" : [ "obj-96", 0 ],
					"source" : [ "obj-172", 0 ]
				}

			}
, 			{
				"patchline" : 				{
					"destination" : [ "obj-185", 0 ],
					"source" : [ "obj-174", 0 ]
				}

			}
, 			{
				"patchline" : 				{
					"destination" : [ "obj-131", 0 ],
					"source" : [ "obj-175", 0 ]
				}

			}
, 			{
				"patchline" : 				{
					"destination" : [ "obj-98", 2 ],
					"source" : [ "obj-177", 0 ]
				}

			}
, 			{
				"patchline" : 				{
					"destination" : [ "obj-290", 0 ],
					"source" : [ "obj-178", 0 ]
				}

			}
, 			{
				"patchline" : 				{
					"destination" : [ "obj-170", 0 ],
					"source" : [ "obj-179", 0 ]
				}

			}
, 			{
				"patchline" : 				{
					"destination" : [ "obj-14", 0 ],
					"midpoints" : [ 1224.5, 427.0, 1186.5, 427.0 ],
					"source" : [ "obj-18", 1 ]
				}

			}
, 			{
				"patchline" : 				{
					"destination" : [ "obj-17", 0 ],
					"midpoints" : [ 1096.5, 465.0, 1058.5, 465.0 ],
					"source" : [ "obj-18", 0 ]
				}

			}
, 			{
				"patchline" : 				{
					"destination" : [ "obj-178", 0 ],
					"source" : [ "obj-180", 0 ]
				}

			}
, 			{
				"patchline" : 				{
					"destination" : [ "obj-154", 0 ],
					"source" : [ "obj-182", 0 ]
				}

			}
, 			{
				"patchline" : 				{
					"destination" : [ "obj-184", 0 ],
					"source" : [ "obj-183", 0 ]
				}

			}
, 			{
				"patchline" : 				{
					"destination" : [ "obj-9", 0 ],
					"source" : [ "obj-185", 0 ]
				}

			}
, 			{
				"patchline" : 				{
					"destination" : [ "obj-174", 0 ],
					"source" : [ "obj-188", 4 ]
				}

			}
, 			{
				"patchline" : 				{
					"destination" : [ "obj-209", 0 ],
					"order" : 0,
					"source" : [ "obj-188", 9 ]
				}

			}
, 			{
				"patchline" : 				{
					"destination" : [ "obj-224", 0 ],
					"order" : 0,
					"source" : [ "obj-188", 7 ]
				}

			}
, 			{
				"patchline" : 				{
					"destination" : [ "obj-231", 0 ],
					"order" : 0,
					"source" : [ "obj-188", 8 ]
				}

			}
, 			{
				"patchline" : 				{
					"destination" : [ "obj-245", 1 ],
					"order" : 1,
					"source" : [ "obj-188", 7 ]
				}

			}
, 			{
				"patchline" : 				{
					"destination" : [ "obj-250", 1 ],
					"order" : 1,
					"source" : [ "obj-188", 8 ]
				}

			}
, 			{
				"patchline" : 				{
					"destination" : [ "obj-253", 1 ],
					"order" : 1,
					"source" : [ "obj-188", 9 ]
				}

			}
, 			{
				"patchline" : 				{
					"destination" : [ "obj-306", 1 ],
					"order" : 0,
					"source" : [ "obj-188", 3 ]
				}

			}
, 			{
				"patchline" : 				{
					"destination" : [ "obj-307", 1 ],
					"order" : 0,
					"source" : [ "obj-188", 2 ]
				}

			}
, 			{
				"patchline" : 				{
					"destination" : [ "obj-308", 1 ],
					"order" : 0,
					"source" : [ "obj-188", 1 ]
				}

			}
, 			{
				"patchline" : 				{
					"destination" : [ "obj-309", 0 ],
					"order" : 1,
					"source" : [ "obj-188", 3 ]
				}

			}
, 			{
				"patchline" : 				{
					"destination" : [ "obj-310", 0 ],
					"order" : 1,
					"source" : [ "obj-188", 1 ]
				}

			}
, 			{
				"patchline" : 				{
					"destination" : [ "obj-311", 0 ],
					"order" : 1,
					"source" : [ "obj-188", 2 ]
				}

			}
, 			{
				"patchline" : 				{
					"destination" : [ "obj-54", 1 ],
					"order" : 0,
					"source" : [ "obj-188", 11 ]
				}

			}
, 			{
				"patchline" : 				{
					"destination" : [ "obj-68", 0 ],
					"source" : [ "obj-188", 5 ]
				}

			}
, 			{
				"patchline" : 				{
					"destination" : [ "obj-69", 0 ],
					"source" : [ "obj-188", 6 ]
				}

			}
, 			{
				"patchline" : 				{
					"destination" : [ "obj-97", 0 ],
					"order" : 1,
					"source" : [ "obj-188", 11 ]
				}

			}
, 			{
				"patchline" : 				{
					"destination" : [ "obj-214", 0 ],
					"order" : 0,
					"source" : [ "obj-19", 0 ]
				}

			}
, 			{
				"patchline" : 				{
					"destination" : [ "obj-217", 0 ],
					"order" : 1,
					"source" : [ "obj-19", 0 ]
				}

			}
, 			{
				"patchline" : 				{
					"destination" : [ "obj-98", 3 ],
					"source" : [ "obj-192", 0 ]
				}

			}
, 			{
				"patchline" : 				{
					"destination" : [ "obj-9", 1 ],
					"source" : [ "obj-194", 0 ]
				}

			}
, 			{
				"patchline" : 				{
					"destination" : [ "obj-179", 0 ],
					"source" : [ "obj-195", 0 ]
				}

			}
, 			{
				"patchline" : 				{
					"destination" : [ "obj-39", 0 ],
					"source" : [ "obj-196", 0 ]
				}

			}
, 			{
				"patchline" : 				{
					"destination" : [ "obj-11", 0 ],
					"source" : [ "obj-197", 0 ]
				}

			}
, 			{
				"patchline" : 				{
					"destination" : [ "obj-11", 1 ],
					"source" : [ "obj-198", 0 ]
				}

			}
, 			{
				"patchline" : 				{
					"destination" : [ "obj-26", 0 ],
					"order" : 1,
					"source" : [ "obj-2", 0 ]
				}

			}
, 			{
				"patchline" : 				{
					"destination" : [ "obj-30", 0 ],
					"order" : 0,
					"source" : [ "obj-2", 0 ]
				}

			}
, 			{
				"patchline" : 				{
					"destination" : [ "obj-1", 6 ],
					"source" : [ "obj-206", 0 ]
				}

			}
, 			{
				"patchline" : 				{
					"destination" : [ "obj-1", 4 ],
					"source" : [ "obj-207", 0 ]
				}

			}
, 			{
				"patchline" : 				{
					"destination" : [ "obj-175", 0 ],
					"order" : 0,
					"source" : [ "obj-209", 0 ]
				}

			}
, 			{
				"patchline" : 				{
					"destination" : [ "obj-47", 1 ],
					"order" : 1,
					"source" : [ "obj-209", 0 ]
				}

			}
, 			{
				"patchline" : 				{
					"destination" : [ "obj-39", 0 ],
					"source" : [ "obj-21", 0 ]
				}

			}
, 			{
				"patchline" : 				{
					"destination" : [ "obj-130", 0 ],
					"source" : [ "obj-210", 0 ]
				}

			}
, 			{
				"patchline" : 				{
					"destination" : [ "obj-1", 1 ],
					"order" : 0,
					"source" : [ "obj-211", 0 ]
				}

			}
, 			{
				"patchline" : 				{
					"destination" : [ "obj-172", 0 ],
					"order" : 1,
					"source" : [ "obj-211", 0 ]
				}

			}
, 			{
				"patchline" : 				{
					"destination" : [ "obj-211", 0 ],
					"source" : [ "obj-212", 0 ]
				}

			}
, 			{
				"patchline" : 				{
					"destination" : [ "obj-182", 3 ],
					"source" : [ "obj-217", 0 ]
				}

			}
, 			{
				"patchline" : 				{
					"destination" : [ "obj-182", 4 ],
					"source" : [ "obj-218", 0 ]
				}

			}
, 			{
				"patchline" : 				{
					"destination" : [ "obj-182", 5 ],
					"source" : [ "obj-219", 0 ]
				}

			}
, 			{
				"patchline" : 				{
					"destination" : [ "obj-197", 0 ],
					"source" : [ "obj-22", 0 ]
				}

			}
, 			{
				"patchline" : 				{
					"destination" : [ "obj-214", 2 ],
					"order" : 4,
					"source" : [ "obj-223", 0 ]
				}

			}
, 			{
				"patchline" : 				{
					"destination" : [ "obj-215", 2 ],
					"order" : 2,
					"source" : [ "obj-223", 0 ]
				}

			}
, 			{
				"patchline" : 				{
					"destination" : [ "obj-216", 2 ],
					"order" : 1,
					"source" : [ "obj-223", 0 ]
				}

			}
, 			{
				"patchline" : 				{
					"destination" : [ "obj-217", 1 ],
					"order" : 5,
					"source" : [ "obj-223", 0 ]
				}

			}
, 			{
				"patchline" : 				{
					"destination" : [ "obj-218", 1 ],
					"order" : 3,
					"source" : [ "obj-223", 0 ]
				}

			}
, 			{
				"patchline" : 				{
					"destination" : [ "obj-219", 1 ],
					"order" : 0,
					"source" : [ "obj-223", 0 ]
				}

			}
, 			{
				"patchline" : 				{
					"destination" : [ "obj-163", 0 ],
					"source" : [ "obj-224", 0 ]
				}

			}
, 			{
				"patchline" : 				{
					"destination" : [ "obj-214", 1 ],
					"order" : 4,
					"source" : [ "obj-225", 0 ]
				}

			}
, 			{
				"patchline" : 				{
					"destination" : [ "obj-215", 1 ],
					"order" : 3,
					"source" : [ "obj-225", 0 ]
				}

			}
, 			{
				"patchline" : 				{
					"destination" : [ "obj-216", 1 ],
					"order" : 1,
					"source" : [ "obj-225", 0 ]
				}

			}
, 			{
				"patchline" : 				{
					"destination" : [ "obj-217", 2 ],
					"order" : 5,
					"source" : [ "obj-225", 0 ]
				}

			}
, 			{
				"patchline" : 				{
					"destination" : [ "obj-218", 2 ],
					"order" : 2,
					"source" : [ "obj-225", 0 ]
				}

			}
, 			{
				"patchline" : 				{
					"destination" : [ "obj-219", 2 ],
					"order" : 0,
					"source" : [ "obj-225", 0 ]
				}

			}
, 			{
				"patchline" : 				{
					"destination" : [ "obj-67", 0 ],
					"source" : [ "obj-229", 0 ]
				}

			}
, 			{
				"patchline" : 				{
					"destination" : [ "obj-18", 0 ],
					"midpoints" : [ 1314.0, 255.0, 1096.5, 255.0 ],
					"order" : 0,
					"source" : [ "obj-23", 2 ]
				}

			}
, 			{
				"patchline" : 				{
					"destination" : [ "obj-9", 0 ],
					"midpoints" : [ 1314.0, 216.0, 505.5, 216.0 ],
					"order" : 1,
					"source" : [ "obj-23", 2 ]
				}

			}
, 			{
				"patchline" : 				{
					"destination" : [ "obj-84", 0 ],
					"source" : [ "obj-230", 0 ]
				}

			}
, 			{
				"patchline" : 				{
					"destination" : [ "obj-169", 0 ],
					"source" : [ "obj-231", 0 ]
				}

			}
, 			{
				"patchline" : 				{
					"destination" : [ "obj-98", 4 ],
					"source" : [ "obj-233", 0 ]
				}

			}
, 			{
				"patchline" : 				{
					"destination" : [ "obj-188", 0 ],
					"source" : [ "obj-24", 0 ]
				}

			}
, 			{
				"patchline" : 				{
					"destination" : [ "obj-224", 1 ],
					"source" : [ "obj-245", 0 ]
				}

			}
, 			{
				"patchline" : 				{
					"destination" : [ "obj-184", 1 ],
					"order" : 0,
					"source" : [ "obj-25", 0 ]
				}

			}
, 			{
				"patchline" : 				{
					"destination" : [ "obj-229", 1 ],
					"order" : 2,
					"source" : [ "obj-25", 0 ]
				}

			}
, 			{
				"patchline" : 				{
					"destination" : [ "obj-230", 1 ],
					"order" : 1,
					"source" : [ "obj-25", 0 ]
				}

			}
, 			{
				"patchline" : 				{
					"destination" : [ "obj-231", 1 ],
					"source" : [ "obj-250", 0 ]
				}

			}
, 			{
				"patchline" : 				{
					"destination" : [ "obj-209", 1 ],
					"source" : [ "obj-253", 0 ]
				}

			}
, 			{
				"patchline" : 				{
					"destination" : [ "obj-245", 0 ],
					"order" : 2,
					"source" : [ "obj-256", 0 ]
				}

			}
, 			{
				"patchline" : 				{
					"destination" : [ "obj-250", 0 ],
					"order" : 1,
					"source" : [ "obj-256", 0 ]
				}

			}
, 			{
				"patchline" : 				{
					"destination" : [ "obj-253", 0 ],
					"order" : 0,
					"source" : [ "obj-256", 0 ]
				}

			}
, 			{
				"patchline" : 				{
					"destination" : [ "obj-38", 0 ],
					"source" : [ "obj-27", 0 ]
				}

			}
, 			{
				"patchline" : 				{
					"destination" : [ "obj-338", 0 ],
					"order" : 0,
					"source" : [ "obj-287", 0 ]
				}

			}
, 			{
				"patchline" : 				{
					"destination" : [ "obj-4", 0 ],
					"order" : 1,
					"source" : [ "obj-287", 0 ]
				}

			}
, 			{
				"patchline" : 				{
					"destination" : [ "obj-2", 0 ],
					"source" : [ "obj-288", 0 ]
				}

			}
, 			{
				"patchline" : 				{
					"destination" : [ "obj-32", 0 ],
					"source" : [ "obj-29", 0 ]
				}

			}
, 			{
				"patchline" : 				{
					"destination" : [ "obj-153", 2 ],
					"order" : 0,
					"source" : [ "obj-290", 0 ]
				}

			}
, 			{
				"patchline" : 				{
					"destination" : [ "obj-183", 0 ],
					"order" : 1,
					"source" : [ "obj-290", 0 ]
				}

			}
, 			{
				"patchline" : 				{
					"destination" : [ "obj-159", 0 ],
					"source" : [ "obj-292", 0 ]
				}

			}
, 			{
				"patchline" : 				{
					"destination" : [ "obj-93", 0 ],
					"source" : [ "obj-294", 0 ]
				}

			}
, 			{
				"patchline" : 				{
					"destination" : [ "obj-180", 1 ],
					"order" : 0,
					"source" : [ "obj-296", 0 ]
				}

			}
, 			{
				"patchline" : 				{
					"destination" : [ "obj-197", 1 ],
					"order" : 2,
					"source" : [ "obj-296", 0 ]
				}

			}
, 			{
				"patchline" : 				{
					"destination" : [ "obj-198", 1 ],
					"order" : 1,
					"source" : [ "obj-296", 0 ]
				}

			}
, 			{
				"patchline" : 				{
					"destination" : [ "obj-180", 2 ],
					"order" : 0,
					"source" : [ "obj-298", 0 ]
				}

			}
, 			{
				"patchline" : 				{
					"destination" : [ "obj-197", 2 ],
					"order" : 2,
					"source" : [ "obj-298", 0 ]
				}

			}
, 			{
				"patchline" : 				{
					"destination" : [ "obj-198", 2 ],
					"order" : 1,
					"source" : [ "obj-298", 0 ]
				}

			}
, 			{
				"patchline" : 				{
					"destination" : [ "obj-28", 0 ],
					"order" : 0,
					"source" : [ "obj-3", 0 ]
				}

			}
, 			{
				"patchline" : 				{
					"destination" : [ "obj-30", 0 ],
					"order" : 1,
					"source" : [ "obj-3", 0 ]
				}

			}
, 			{
				"patchline" : 				{
					"destination" : [ "obj-116", 0 ],
					"order" : 0,
					"source" : [ "obj-30", 0 ]
				}

			}
, 			{
				"patchline" : 				{
					"destination" : [ "obj-141", 0 ],
					"order" : 1,
					"source" : [ "obj-30", 0 ]
				}

			}
, 			{
				"patchline" : 				{
					"destination" : [ "obj-306", 0 ],
					"order" : 0,
					"source" : [ "obj-305", 0 ]
				}

			}
, 			{
				"patchline" : 				{
					"destination" : [ "obj-307", 0 ],
					"order" : 1,
					"source" : [ "obj-305", 0 ]
				}

			}
, 			{
				"patchline" : 				{
					"destination" : [ "obj-308", 0 ],
					"order" : 2,
					"source" : [ "obj-305", 0 ]
				}

			}
, 			{
				"patchline" : 				{
					"destination" : [ "obj-309", 1 ],
					"source" : [ "obj-306", 0 ]
				}

			}
, 			{
				"patchline" : 				{
					"destination" : [ "obj-311", 1 ],
					"source" : [ "obj-307", 0 ]
				}

			}
, 			{
				"patchline" : 				{
					"destination" : [ "obj-310", 1 ],
					"source" : [ "obj-308", 0 ]
				}

			}
, 			{
				"patchline" : 				{
					"destination" : [ "obj-55", 0 ],
					"source" : [ "obj-309", 0 ]
				}

			}
, 			{
				"patchline" : 				{
					"destination" : [ "obj-224", 1 ],
					"source" : [ "obj-31", 0 ]
				}

			}
, 			{
				"patchline" : 				{
					"destination" : [ "obj-22", 0 ],
					"source" : [ "obj-310", 0 ]
				}

			}
, 			{
				"patchline" : 				{
					"destination" : [ "obj-46", 0 ],
					"source" : [ "obj-311", 0 ]
				}

			}
, 			{
				"patchline" : 				{
					"destination" : [ "obj-39", 0 ],
					"source" : [ "obj-32", 0 ]
				}

			}
, 			{
				"patchline" : 				{
					"destination" : [ "obj-231", 1 ],
					"source" : [ "obj-33", 0 ]
				}

			}
, 			{
				"patchline" : 				{
					"destination" : [ "obj-149", 1 ],
					"source" : [ "obj-37", 0 ]
				}

			}
, 			{
				"patchline" : 				{
					"destination" : [ "obj-39", 0 ],
					"source" : [ "obj-38", 0 ]
				}

			}
, 			{
				"patchline" : 				{
					"destination" : [ "obj-3", 0 ],
					"order" : 1,
					"source" : [ "obj-39", 0 ]
				}

			}
, 			{
				"patchline" : 				{
					"destination" : [ "obj-45", 0 ],
					"order" : 0,
					"source" : [ "obj-39", 0 ]
				}

			}
, 			{
				"patchline" : 				{
					"destination" : [ "obj-196", 1 ],
					"source" : [ "obj-4", 0 ]
				}

			}
, 			{
				"patchline" : 				{
					"destination" : [ "obj-93", 0 ],
					"source" : [ "obj-44", 0 ]
				}

			}
, 			{
				"patchline" : 				{
					"destination" : [ "obj-198", 0 ],
					"source" : [ "obj-46", 0 ]
				}

			}
, 			{
				"patchline" : 				{
					"destination" : [ "obj-66", 0 ],
					"source" : [ "obj-49", 0 ]
				}

			}
, 			{
				"patchline" : 				{
					"destination" : [ "obj-1", 3 ],
					"order" : 0,
					"source" : [ "obj-5", 0 ]
				}

			}
, 			{
				"patchline" : 				{
					"destination" : [ "obj-206", 0 ],
					"order" : 1,
					"source" : [ "obj-5", 0 ]
				}

			}
, 			{
				"patchline" : 				{
					"destination" : [ "obj-180", 5 ],
					"order" : 0,
					"source" : [ "obj-50", 0 ]
				}

			}
, 			{
				"patchline" : 				{
					"destination" : [ "obj-197", 5 ],
					"order" : 2,
					"source" : [ "obj-50", 0 ]
				}

			}
, 			{
				"patchline" : 				{
					"destination" : [ "obj-198", 5 ],
					"order" : 1,
					"source" : [ "obj-50", 0 ]
				}

			}
, 			{
				"patchline" : 				{
					"destination" : [ "obj-180", 0 ],
					"source" : [ "obj-55", 0 ]
				}

			}
, 			{
				"patchline" : 				{
					"destination" : [ "obj-81", 0 ],
					"source" : [ "obj-57", 0 ]
				}

			}
, 			{
				"patchline" : 				{
					"destination" : [ "obj-82", 0 ],
					"source" : [ "obj-58", 0 ]
				}

			}
, 			{
				"patchline" : 				{
					"destination" : [ "obj-57", 0 ],
					"source" : [ "obj-59", 0 ]
				}

			}
, 			{
				"patchline" : 				{
					"destination" : [ "obj-229", 0 ],
					"source" : [ "obj-6", 0 ]
				}

			}
, 			{
				"patchline" : 				{
					"destination" : [ "obj-76", 0 ],
					"source" : [ "obj-60", 0 ]
				}

			}
, 			{
				"patchline" : 				{
					"destination" : [ "obj-72", 0 ],
					"source" : [ "obj-64", 0 ]
				}

			}
, 			{
				"patchline" : 				{
					"destination" : [ "obj-73", 0 ],
					"source" : [ "obj-65", 0 ]
				}

			}
, 			{
				"patchline" : 				{
					"destination" : [ "obj-154", 1 ],
					"source" : [ "obj-66", 0 ]
				}

			}
, 			{
				"patchline" : 				{
					"destination" : [ "obj-182", 6 ],
					"order" : 0,
					"source" : [ "obj-67", 0 ]
				}

			}
, 			{
				"patchline" : 				{
					"destination" : [ "obj-182", 0 ],
					"order" : 1,
					"source" : [ "obj-67", 0 ]
				}

			}
, 			{
				"patchline" : 				{
					"destination" : [ "obj-194", 0 ],
					"source" : [ "obj-68", 0 ]
				}

			}
, 			{
				"patchline" : 				{
					"destination" : [ "obj-195", 0 ],
					"source" : [ "obj-69", 0 ]
				}

			}
, 			{
				"patchline" : 				{
					"destination" : [ "obj-168", 2 ],
					"order" : 0,
					"source" : [ "obj-7", 0 ]
				}

			}
, 			{
				"patchline" : 				{
					"destination" : [ "obj-5", 0 ],
					"midpoints" : [ 642.5, 436.0, 642.5, 436.0 ],
					"order" : 1,
					"source" : [ "obj-7", 0 ]
				}

			}
, 			{
				"patchline" : 				{
					"destination" : [ "obj-41", 0 ],
					"source" : [ "obj-70", 0 ]
				}

			}
, 			{
				"patchline" : 				{
					"destination" : [ "obj-64", 0 ],
					"order" : 0,
					"source" : [ "obj-75", 0 ]
				}

			}
, 			{
				"patchline" : 				{
					"destination" : [ "obj-65", 0 ],
					"order" : 1,
					"source" : [ "obj-75", 0 ]
				}

			}
, 			{
				"patchline" : 				{
					"destination" : [ "obj-70", 0 ],
					"order" : 2,
					"source" : [ "obj-75", 0 ]
				}

			}
, 			{
				"patchline" : 				{
					"destination" : [ "obj-59", 0 ],
					"order" : 0,
					"source" : [ "obj-76", 0 ]
				}

			}
, 			{
				"patchline" : 				{
					"destination" : [ "obj-80", 0 ],
					"order" : 1,
					"source" : [ "obj-76", 0 ]
				}

			}
, 			{
				"patchline" : 				{
					"destination" : [ "obj-10", 0 ],
					"midpoints" : [ 514.5, 463.0, 514.5, 463.0 ],
					"order" : 1,
					"source" : [ "obj-8", 0 ]
				}

			}
, 			{
				"patchline" : 				{
					"destination" : [ "obj-168", 1 ],
					"order" : 0,
					"source" : [ "obj-8", 0 ]
				}

			}
, 			{
				"patchline" : 				{
					"destination" : [ "obj-58", 0 ],
					"source" : [ "obj-80", 0 ]
				}

			}
, 			{
				"patchline" : 				{
					"destination" : [ "obj-77", 0 ],
					"source" : [ "obj-81", 0 ]
				}

			}
, 			{
				"patchline" : 				{
					"destination" : [ "obj-77", 0 ],
					"source" : [ "obj-82", 0 ]
				}

			}
, 			{
				"patchline" : 				{
					"destination" : [ "obj-93", 0 ],
					"source" : [ "obj-83", 0 ]
				}

			}
, 			{
				"patchline" : 				{
					"destination" : [ "obj-182", 7 ],
					"order" : 0,
					"source" : [ "obj-84", 0 ]
				}

			}
, 			{
				"patchline" : 				{
					"destination" : [ "obj-182", 2 ],
					"order" : 1,
					"source" : [ "obj-84", 0 ]
				}

			}
, 			{
				"patchline" : 				{
					"destination" : [ "obj-182", 1 ],
					"order" : 2,
					"source" : [ "obj-84", 0 ]
				}

			}
, 			{
				"patchline" : 				{
					"destination" : [ "obj-121", 0 ],
					"source" : [ "obj-88", 0 ]
				}

			}
, 			{
				"patchline" : 				{
					"destination" : [ "obj-44", 0 ],
					"source" : [ "obj-89", 0 ]
				}

			}
, 			{
				"patchline" : 				{
					"destination" : [ "obj-7", 0 ],
					"midpoints" : [ 633.5, 388.0, 642.5, 388.0 ],
					"source" : [ "obj-9", 1 ]
				}

			}
, 			{
				"patchline" : 				{
					"destination" : [ "obj-8", 0 ],
					"midpoints" : [ 505.5, 433.0, 514.5, 433.0 ],
					"source" : [ "obj-9", 0 ]
				}

			}
, 			{
				"patchline" : 				{
					"destination" : [ "obj-92", 0 ],
					"source" : [ "obj-91", 0 ]
				}

			}
, 			{
				"patchline" : 				{
					"destination" : [ "obj-93", 0 ],
					"source" : [ "obj-92", 0 ]
				}

			}
, 			{
				"patchline" : 				{
					"destination" : [ "obj-2", 0 ],
					"order" : 0,
					"source" : [ "obj-93", 0 ]
				}

			}
, 			{
				"patchline" : 				{
					"destination" : [ "obj-85", 0 ],
					"midpoints" : [ 193.166687000000138, 1251.0, 269.500000000000114, 1251.0 ],
					"source" : [ "obj-93", 3 ]
				}

			}
, 			{
				"patchline" : 				{
					"destination" : [ "obj-86", 0 ],
					"midpoints" : [ 173.500020333333481, 1258.0, 247.500000000000114, 1258.0 ],
					"source" : [ "obj-93", 2 ]
				}

			}
, 			{
				"patchline" : 				{
					"destination" : [ "obj-95", 0 ],
					"order" : 2,
					"source" : [ "obj-93", 0 ]
				}

			}
, 			{
				"patchline" : 				{
					"destination" : [ "obj-98", 0 ],
					"order" : 1,
					"source" : [ "obj-93", 0 ]
				}

			}
, 			{
				"patchline" : 				{
					"destination" : [ "obj-1", 0 ],
					"order" : 0,
					"source" : [ "obj-96", 0 ]
				}

			}
, 			{
				"patchline" : 				{
					"destination" : [ "obj-94", 0 ],
					"order" : 1,
					"source" : [ "obj-96", 0 ]
				}

			}
, 			{
				"patchline" : 				{
					"destination" : [ "obj-288", 0 ],
					"source" : [ "obj-98", 1 ]
				}

			}
, 			{
				"patchline" : 				{
					"destination" : [ "obj-288", 0 ],
					"source" : [ "obj-98", 0 ]
				}

			}
, 			{
				"patchline" : 				{
					"destination" : [ "obj-294", 0 ],
					"source" : [ "obj-99", 0 ]
				}

			}
 ],
		"dependency_cache" : [ 			{
				"name" : "nn~.mxo",
				"type" : "iLaX"
			}
, 			{
				"name" : "yafr2.maxpat",
				"bootpath" : "~/Library/Application Support/Cycling '74/Max 8/Examples/effects/reverb/lib",
				"patcherrelativepath" : "../../../../../../Library/Application Support/Cycling '74/Max 8/Examples/effects/reverb/lib",
				"type" : "JSON",
				"implicit" : 1
			}
 ],
		"autosave" : 0
	}

}
